<svg width="100" height="100" viewBox="0 0 100 100" fill="none" xmlns="http://www.w3.org/2000/svg">
    <path opacity="0.4"
          d="M77.7778 50C77.7778 25.2778 47.8889 12.8333 30.3333 30.3333C12.8333 47.8333 25.2778 77.7778 50 77.7778C65.3333 77.7778 77.7778 65.3333 77.7778 50ZM50 66.6667C35.1667 66.6667 27.7778 48.7222 38.2222 38.2222C48.7222 27.7778 66.6667 35.1667 66.6667 50C66.6667 59.2222 59.2222 66.6667 50 66.6667ZM11.1111 66.6667H0V88.8889C0 95 5 100 11.1111 100H33.3333V88.8889H11.1111M11.1111 11.1111H33.3333V0H11.1111C5 0 0 5 0 11.1111V33.3333H11.1111M88.8889 0H66.6667V11.1111H88.8889V33.3333H100V11.1111C100 5 95 0 88.8889 0ZM88.8889 88.8889H66.6667V100H88.8889C95 100 100 95 100 88.8889V66.6667H88.8889"
          fill="#000000"/>
</svg>
