<svg width="30" height="29" viewBox="0 0 30 29" fill="none" xmlns="http://www.w3.org/2000/svg">
<path d="M29.6693 19.3702L23.1839 15.6929V14.1842H24.2477C25.5104 14.1842 26.5376 13.157 26.5376 11.8943V11.3867C26.5376 10.9271 26.1638 10.5533 25.7042 10.5533H24.5913C24.061 10.5533 23.5725 10.7351 23.1839 11.0389C23.1839 11.0389 23.1738 8.0426 23.1561 7.9026H24.8433C25.5066 7.9026 26.1479 7.7623 26.7494 7.48564C26.9708 7.38388 27.0677 7.12181 26.9658 6.90051C26.8641 6.67914 26.6022 6.58226 26.3807 6.68403C25.8957 6.90709 25.3784 7.02022 24.8433 7.02022H23.1839V6.3439C23.1839 4.31212 24.8369 2.65912 26.8687 2.65912H28.5281V3.33538C28.5281 4.16676 28.2569 4.95197 27.7439 5.60628C27.5935 5.79806 27.6271 6.07536 27.8188 6.22572C28.0106 6.37602 28.2879 6.34249 28.4382 6.15077C29.0743 5.33957 29.4105 4.366 29.4105 3.33538V2.53565C29.4105 2.11728 29.07 1.77686 28.6516 1.77686H26.8686C24.4459 1.77686 22.4588 3.67322 22.3112 6.05936C21.6889 5.36804 20.7877 4.9325 19.7865 4.9325H18.3764C17.9921 4.9325 17.6793 5.24515 17.6793 5.62958V6.64797C17.6793 8.52121 19.2033 10.0452 21.0766 10.0452H22.3014V15.1927L15.4286 11.2958V10.3649H16.0577C16.8683 10.3649 17.5278 9.70543 17.5278 8.89481V8.45932C17.5278 7.99749 17.152 7.62177 16.6902 7.62177H16.0163C15.774 7.62177 15.5454 7.68106 15.3437 7.78536C15.1408 7.21599 14.5966 6.80715 13.9585 6.80715H13.2847C12.8228 6.80715 12.4471 7.18293 12.4471 7.64477V8.08025C12.4471 8.89081 13.1066 9.5503 13.9172 9.5503H14.5462V9.92373V11.3543L6.7449 15.7777V14.213V13.6679H7.35881C8.40714 13.6679 9.25999 12.815 9.25999 11.7667V11.2505C9.25999 10.8053 8.89774 10.443 8.45249 10.443H7.76382C7.02815 10.443 6.38924 10.8633 6.07323 11.4761C5.6201 10.9926 4.97649 10.6896 4.26311 10.6896H3.5952C3.14595 10.6896 2.78047 11.0551 2.78047 11.5043V12.1723C2.78047 13.5408 3.89386 14.6541 5.26232 14.6541H5.86258V16.278L4.14252 17.2532C3.93051 17.3734 3.85615 17.6426 3.97633 17.8547C4.09652 18.0666 4.36582 18.1409 4.57777 18.0208L5.86264 17.2923V20.1553C5.86264 20.399 6.06011 20.5965 6.30383 20.5965C6.54754 20.5965 6.74502 20.399 6.74502 20.1553V16.792L8.39008 15.8592L14.1225 19.1095L6.84855 23.2338L1.19224 19.9404L2.79259 19.033C3.00459 18.9129 3.07895 18.6436 2.95877 18.4316C2.83853 18.2196 2.56923 18.1453 2.35734 18.2654L0.408916 19.3702C0.20632 19.4851 0.0795512 19.7011 0.0782571 19.9341C0.0769629 20.167 0.201203 20.3844 0.402504 20.5016L6.62607 24.1253C6.62649 24.1255 6.6269 24.1258 6.62731 24.126L14.7108 28.8326C14.8121 28.8916 14.9255 28.921 15.0391 28.921C15.1526 28.921 15.2661 28.8916 15.3674 28.8326L25.8959 22.7024C26.1065 22.5798 26.1778 22.3097 26.0552 22.0992C25.9325 21.8886 25.6623 21.8171 25.4519 21.9399L23.2078 23.2465L15.9115 19.1094L21.666 15.8465L22.3015 16.2068V19.5378C22.3015 19.7815 22.499 19.979 22.7427 19.979C22.9864 19.979 23.1839 19.7815 23.1839 19.5378V16.7073L28.886 19.9404L27.2167 20.9123C27.0061 21.0349 26.9348 21.3051 27.0574 21.5156C27.1394 21.6564 27.2872 21.7349 27.4391 21.7349C27.5145 21.7349 27.5909 21.7156 27.6607 21.6749L29.6758 20.5016C29.8771 20.3844 30.0013 20.167 30 19.9341C29.9987 19.7011 29.8719 19.4851 29.6693 19.3702ZM24.5913 11.4357H25.6552V11.8943C25.6552 12.6704 25.0238 13.3018 24.2477 13.3018H23.1839V12.8432C23.1839 12.0671 23.8153 11.4357 24.5913 11.4357ZM21.0767 9.1627C19.69 9.1627 18.5618 8.03455 18.5618 6.64785V5.81482H19.7866C21.1733 5.81482 22.3015 6.94304 22.3015 8.32973V9.1627H21.0767ZM6.74502 12.3441C6.74502 11.7823 7.20209 11.3253 7.76382 11.3253H8.37772V11.7666C8.37772 12.3284 7.92065 12.7854 7.35892 12.7854H6.74502V12.3441ZM5.26238 13.7716C4.38041 13.7716 3.66291 13.0541 3.66291 12.1722V11.5718H4.26317C5.14514 11.5718 5.86264 12.2893 5.86264 13.1713V13.7716H5.26238ZM16.0165 8.50397H16.6455V8.89469C16.6455 9.21876 16.3819 9.48242 16.0579 9.48242H15.4288V9.09164C15.4287 8.76757 15.6924 8.50397 16.0165 8.50397ZM13.3296 8.08008V7.6893H13.9586C14.2827 7.6893 14.5464 7.95295 14.5464 8.27702V8.66774H13.9173C13.5932 8.6678 13.3296 8.40415 13.3296 8.08008ZM22.3252 23.7605L15.0392 28.0028L7.73123 23.7477L15.017 19.6167L22.3252 23.7605ZM15.017 18.6023L9.28458 15.352L14.5464 12.3685V15.352C14.5464 15.5957 14.7439 15.7932 14.9876 15.7932C15.2313 15.7932 15.4288 15.5957 15.4288 15.352V12.31L20.7716 15.3394L15.017 18.6023Z" fill="black"/>
<path d="M13.9171 24.7701H14.5462V25.7774C14.5462 26.0211 14.7437 26.2186 14.9874 26.2186C15.2311 26.2186 15.4286 26.0211 15.4286 25.7774V24.7701H15.9873C16.7512 24.7701 17.3726 24.1487 17.3726 23.3848V22.9951C17.3726 22.5921 17.0447 22.2642 16.6417 22.2642H15.9315C15.613 22.2642 15.3194 22.3726 15.0852 22.5539C14.8153 22.232 14.4104 22.0269 13.9585 22.0269H13.2846C12.8228 22.0269 12.4471 22.4026 12.4471 22.8645V23.3C12.4471 24.1106 13.1066 24.7701 13.9171 24.7701ZM15.9315 23.1467H16.4902V23.3848C16.4902 23.6621 16.2646 23.8877 15.9873 23.8877H15.4286V23.6496C15.4286 23.3722 15.6542 23.1467 15.9315 23.1467ZM13.3295 22.9092H13.9585C14.2826 22.9092 14.5462 23.1728 14.5462 23.4969V23.8877H13.9171C13.5931 23.8877 13.3295 23.6241 13.3295 23.3V22.9092Z" fill="black"/>
<path d="M1.92866 3.85725C2.84028 3.85725 3.60566 3.22123 3.80572 2.36979H6.12104L10.697 6.94577C10.7831 7.03189 10.8961 7.07495 11.009 7.07495C11.1219 7.07495 11.2348 7.03189 11.321 6.94577C11.4933 6.77341 11.4933 6.49411 11.321 6.32181L6.61582 1.61664C6.53305 1.53394 6.42087 1.48746 6.30381 1.48746H3.80578C3.60566 0.635963 2.84028 0 1.92866 0C0.865207 0 0 0.865148 0 1.9286C0 2.99205 0.865207 3.85725 1.92866 3.85725ZM1.92866 0.882384C2.50556 0.882384 2.97487 1.35175 2.97487 1.9286C2.97487 2.50556 2.5055 2.97487 1.92866 2.97487C1.35175 2.97487 0.882384 2.50556 0.882384 1.9286C0.882384 1.35169 1.35175 0.882384 1.92866 0.882384Z" fill="black"/>
<path d="M6.3039 4.80566H3.89822C3.65451 4.80566 3.45703 5.00314 3.45703 5.24686C3.45703 5.49057 3.65451 5.68805 3.89822 5.68805H6.30395C6.54767 5.68805 6.74515 5.49057 6.74515 5.24686C6.74515 5.00314 6.54761 4.80566 6.3039 4.80566Z" fill="black"/>
<path d="M6.30386 6.63623H1.28262C1.03891 6.63623 0.841431 6.83371 0.841431 7.07742C0.841431 7.32114 1.03891 7.51861 1.28262 7.51861H6.30386C6.54757 7.51861 6.74505 7.32114 6.74505 7.07742C6.74505 6.83371 6.54757 6.63623 6.30386 6.63623Z" fill="black"/>
<path d="M6.30386 8.4668H1.28262C1.03891 8.4668 0.841431 8.66427 0.841431 8.90799C0.841431 9.1517 1.03891 9.34918 1.28262 9.34918H6.30386C6.54757 9.34918 6.74505 9.1517 6.74505 8.90799C6.74505 8.66427 6.54757 8.4668 6.30386 8.4668Z" fill="black"/>
<path d="M1.28262 5.68805H2.30707C2.55078 5.68805 2.74826 5.49057 2.74826 5.24686C2.74826 5.00314 2.55078 4.80566 2.30707 4.80566H1.28262C1.03891 4.80566 0.841431 5.00314 0.841431 5.24686C0.841431 5.49057 1.03891 5.68805 1.28262 5.68805Z" fill="black"/>
</svg>
