<svg width="20" height="14" viewBox="0 0 20 14" fill="none" xmlns="http://www.w3.org/2000/svg">
<path d="M11.625 13.5625C11.375 13.3125 11.255 13.0104 11.265 12.6562C11.2758 12.3021 11.4062 12 11.6562 11.75L15.1875 8.21875H1.25C0.895833 8.21875 0.59875 8.09875 0.35875 7.85875C0.119584 7.61958 0 7.32292 0 6.96875C0 6.61458 0.119584 6.3175 0.35875 6.0775C0.59875 5.83833 0.895833 5.71875 1.25 5.71875H15.1875L11.625 2.15625C11.375 1.90625 11.25 1.60917 11.25 1.265C11.25 0.921666 11.375 0.625 11.625 0.375C11.875 0.125 12.1721 0 12.5162 0C12.8596 0 13.1562 0.125 13.4062 0.375L19.125 6.09375C19.25 6.21875 19.3387 6.35417 19.3912 6.5C19.4429 6.64583 19.4688 6.80208 19.4688 6.96875C19.4688 7.13542 19.4429 7.29167 19.3912 7.4375C19.3387 7.58333 19.25 7.71875 19.125 7.84375L13.375 13.5937C13.1458 13.8229 12.8596 13.9375 12.5162 13.9375C12.1721 13.9375 11.875 13.8125 11.625 13.5625Z" fill="#007FFF"/>
</svg>
