<svg width="80" height="58" viewBox="0 0 80 58" fill="none" xmlns="http://www.w3.org/2000/svg">
<path d="M80 48.8889C80 51.2464 79.0635 53.5073 77.3965 55.1743C75.7295 56.8413 73.4686 57.7778 71.1111 57.7778H8.88889C6.53141 57.7778 4.27049 56.8413 2.6035 55.1743C0.936505 53.5073 0 51.2464 0 48.8889V8.88889C0 6.53141 0.936505 4.27048 2.6035 2.60349C4.27049 0.936505 6.53141 0 8.88889 0H71.1111C73.4686 0 75.7295 0.936505 77.3965 2.60349C79.0635 4.27048 80 6.53141 80 8.88889V48.8889Z" fill="#EEEEEE"/>
<path d="M30.4109 17.9289C33.0369 15.5684 36.4397 14.2565 39.9707 14.2434C43.5017 14.2303 46.9141 15.5168 49.5576 17.8578L73.6309 0.404445C72.8149 0.148349 71.966 0.0121119 71.1109 0H8.88867C7.97534 0 7.1109 0.177778 6.27979 0.433334L30.4109 17.9289Z" fill="#CE1126"/>
<path d="M53.4178 23.2953C54.1393 25.0768 54.4963 26.9848 54.4676 28.9066C54.439 30.8284 54.0253 32.725 53.2511 34.4842L78.9044 53.082C79.58 51.8286 80 50.4153 80 48.8886V8.88862C79.9898 7.45548 79.6298 6.0465 78.9511 4.78418L53.4178 23.2953ZM26.7533 34.3931C25.2469 30.8926 25.1902 26.9375 26.5956 23.3953L1.01333 4.84862C0.356726 6.09464 0.0091892 7.48022 0 8.88862L0 48.8886C0 50.3886 0.406667 51.7797 1.06222 53.0197L26.7533 34.3931Z" fill="#1EB53A"/>
<path d="M49.2379 39.8135C46.6499 41.9645 43.3897 43.1401 40.0246 43.1357C36.624 43.1395 33.3321 41.938 30.7335 39.7446L6.40234 57.3824C7.20813 57.6322 8.0455 57.7654 8.88901 57.778H71.1112C71.949 57.778 72.7423 57.6246 73.509 57.4091L49.2379 39.8135Z" fill="#CE1126"/>
<path d="M42.3932 22.8132L43.0976 21.5954L43.5776 20.762H41.2088L40.5043 19.5443L40.0243 18.7109L39.5421 19.5443L38.8399 20.762H36.4688L36.951 21.5954L37.6532 22.8132L36.951 24.0332L36.4688 24.8665H38.8399L39.5421 26.0843L40.0243 26.9176L40.5043 26.0843L41.2088 24.8665H43.5776L43.0976 24.0332L42.3932 22.8132Z" fill="#1EB53A"/>
<path d="M42.6156 21.3178H40.8889L40.0245 19.8223L39.16 21.3178H37.4312L38.2956 22.8134L37.4312 24.3112H39.16L40.0245 25.8067L40.8889 24.3112H42.6156L41.7512 22.8134L42.6156 21.3178Z" fill="#CE1126"/>
<path d="M48.7289 32.8999L49.4333 31.6799L49.9155 30.8465H47.5444L46.8422 29.6287L46.36 28.7954L45.88 29.6287L45.1755 30.8465H42.8066L43.2866 31.6799L43.9911 32.8999L43.2866 34.1176L42.8066 34.951H45.1755L45.88 36.1687L46.36 37.0043L46.8422 36.1687L47.5444 34.951H49.9155L49.4333 34.1176L48.7289 32.8999Z" fill="#1EB53A"/>
<path d="M46.3602 29.9067L45.4957 31.4023H43.769L44.6313 32.9001L43.769 34.3956H45.4957L46.3602 35.8912L47.2246 34.3956H48.9535L48.089 32.9001L48.9535 31.4023H47.2246L46.3602 29.9067Z" fill="#CE1126"/>
<path d="M36.76 34.1176L36.0577 32.8999L36.76 31.6799L37.2422 30.8465H34.8733L34.1689 29.6287L33.6866 28.7954L33.2066 29.6287L32.5022 30.8465H30.1333L30.6133 31.6799L31.3177 32.8999L30.6133 34.1176L30.1333 34.951H32.5022L33.2066 36.1687L33.6866 37.0043L34.1689 36.1687L34.8733 34.951H37.2422L36.76 34.1176Z" fill="#1EB53A"/>
<path d="M36.2801 31.4023H34.5513L33.6868 29.9067L32.8246 31.4023H31.0957L31.9601 32.9001L31.0957 34.3956H32.8246L33.6868 35.8912L34.5513 34.3956H36.2801L35.4157 32.9001L36.2801 31.4023Z" fill="#CE1126"/>
</svg>
