<svg width="25" height="25" viewBox="0 0 25 25" fill="none" xmlns="http://www.w3.org/2000/svg">
<g opacity="0.5">
<path d="M2.08333 21.875C1.51042 21.875 1.02014 21.6712 0.6125 21.2635C0.204167 20.8552 0 20.3646 0 19.7917V5.20833C0 4.63542 0.204167 4.14479 0.6125 3.73646C1.02014 3.32882 1.51042 3.125 2.08333 3.125H22.9167C23.4896 3.125 23.9802 3.32882 24.3885 3.73646C24.7962 4.14479 25 4.63542 25 5.20833V19.7917C25 20.3646 24.7962 20.8552 24.3885 21.2635C23.9802 21.6712 23.4896 21.875 22.9167 21.875H2.08333ZM16.5625 19.7917H22.9167V5.20833H2.08333V19.7917H2.1875C2.91667 18.4896 3.92361 17.4694 5.20833 16.7312C6.49306 15.9937 7.88194 15.625 9.375 15.625C10.8681 15.625 12.2569 15.9937 13.5417 16.7312C14.8264 17.4694 15.8333 18.4896 16.5625 19.7917ZM9.375 14.5833C10.2431 14.5833 10.9809 14.2795 11.5885 13.6719C12.1962 13.0642 12.5 12.3264 12.5 11.4583C12.5 10.5903 12.1962 9.85243 11.5885 9.24479C10.9809 8.63715 10.2431 8.33333 9.375 8.33333C8.50694 8.33333 7.7691 8.63715 7.16146 9.24479C6.55382 9.85243 6.25 10.5903 6.25 11.4583C6.25 12.3264 6.55382 13.0642 7.16146 13.6719C7.7691 14.2795 8.50694 14.5833 9.375 14.5833ZM19.0365 18.099C19.2274 18.2899 19.4705 18.3767 19.7656 18.3594C20.0608 18.342 20.3038 18.2378 20.4948 18.0469L21.224 17.3177C21.4149 17.1267 21.5191 16.901 21.5365 16.6406C21.5538 16.3802 21.4844 16.1458 21.3281 15.9375L20.625 15C20.5382 14.8611 20.4208 14.7569 20.2729 14.6875C20.1257 14.6181 19.9653 14.5833 19.7917 14.5833H18.5938C18.4896 14.2708 18.4028 13.9365 18.3333 13.5802C18.2639 13.2247 18.2292 12.8646 18.2292 12.5C18.2292 12.1354 18.2639 11.784 18.3333 11.4458C18.4028 11.1069 18.4896 10.7639 18.5938 10.4167H19.7917C19.9653 10.4167 20.1257 10.3819 20.2729 10.3125C20.4208 10.2431 20.5382 10.1389 20.625 10L21.3281 9.0625C21.4844 8.85417 21.5538 8.61979 21.5365 8.35937C21.5191 8.09896 21.4149 7.87326 21.224 7.68229L20.4948 6.95312C20.3038 6.76215 20.0608 6.65799 19.7656 6.64062C19.4705 6.62326 19.2274 6.71007 19.0365 6.90104C18.3073 7.63021 17.7302 8.48542 17.3052 9.46667C16.8795 10.4472 16.6667 11.4583 16.6667 12.5C16.6667 13.5417 16.8795 14.5528 17.3052 15.5333C17.7302 16.5146 18.3073 17.3698 19.0365 18.099ZM4.73958 19.7917H14.0104C13.4201 19.1319 12.7215 18.6198 11.9146 18.2552C11.1069 17.8906 10.2604 17.7083 9.375 17.7083C8.48958 17.7083 7.64757 17.8906 6.84896 18.2552C6.05035 18.6198 5.34722 19.1319 4.73958 19.7917ZM9.375 12.5C9.07986 12.5 8.83264 12.4 8.63333 12.2C8.43333 12.0007 8.33333 11.7535 8.33333 11.4583C8.33333 11.1632 8.43333 10.9156 8.63333 10.7156C8.83264 10.5163 9.07986 10.4167 9.375 10.4167C9.67014 10.4167 9.91771 10.5163 10.1177 10.7156C10.317 10.9156 10.4167 11.1632 10.4167 11.4583C10.4167 11.7535 10.317 12.0007 10.1177 12.2C9.91771 12.4 9.67014 12.5 9.375 12.5Z" fill="black"/>
</g>
</svg>
