<svg width="15" height="15" viewBox="0 0 15 15" fill="none" xmlns="http://www.w3.org/2000/svg">
<g clip-path="url(#clip0_69_608)">
<path d="M7.5 15C5.49671 15 3.61324 14.2199 2.19669 12.8033C0.780144 11.3868 0 9.50329 0 7.5C0 5.49671 0.780144 3.61324 2.19669 2.19669C3.61324 0.780144 5.49671 0 7.5 0C9.50329 0 11.3868 0.780144 12.8033 2.19669C14.2199 3.61324 15 5.49671 15 7.5C15 9.50329 14.2199 11.3868 12.8033 12.8033C11.3868 14.2199 9.50329 15 7.5 15ZM7.5 1.17188C4.0107 1.17188 1.17188 4.0107 1.17188 7.5C1.17188 10.9893 4.0107 13.8281 7.5 13.8281C10.9893 13.8281 13.8281 10.9893 13.8281 7.5C13.8281 4.0107 10.9893 1.17188 7.5 1.17188ZM10.5867 10.5867L9.75803 9.75803C8.51292 11.0032 6.48708 11.0032 5.24197 9.75803C3.99685 8.51292 3.99685 6.48708 5.24197 5.24197C6.48708 3.99685 8.51292 3.99685 9.75803 5.24197L10.5867 4.4133C8.88462 2.71133 6.11526 2.71133 4.4133 4.4133C2.71133 6.11538 2.71133 8.88474 4.4133 10.5867C5.26428 11.4377 6.38214 11.8632 7.5 11.8632C8.61774 11.8632 9.73572 11.4377 10.5867 10.5867Z" fill="black"/>
</g>
<defs>
<clipPath id="clip0_69_608">
<rect width="15" height="15" fill="white"/>
</clipPath>
</defs>
</svg>
