<svg width="20" height="20" viewBox="0 0 20 20" fill="none" xmlns="http://www.w3.org/2000/svg">
<path d="M19.9805 19.059L18.6964 14.8784C19.8882 12.7561 20.264 10.2717 19.7532 7.89186C19.2425 5.51202 17.8802 3.40062 15.9224 1.95436C13.9647 0.508089 11.5462 -0.173491 9.12132 0.0376761C6.69647 0.248843 4.43218 1.33822 2.75389 3.10113C1.0756 4.86404 0.0988293 7.17914 0.00710043 9.61144C-0.0846285 12.0437 0.714999 14.4258 2.25574 16.3101C3.79649 18.1944 5.97229 19.4513 8.37435 19.8445C10.7764 20.2377 13.2394 19.7402 15.3005 18.4455L19.0031 19.9294C19.1233 19.9727 19.2529 19.983 19.3784 19.9592C19.5039 19.9353 19.6207 19.8782 19.7166 19.7938C19.8272 19.7103 19.9111 19.5963 19.958 19.4658C20.0049 19.3353 20.0127 19.1939 19.9805 19.059ZM17.241 14.9854L18.1613 18.0531L15.486 16.983C15.3774 16.9409 15.2602 16.9261 15.1445 16.9398C15.0289 16.9534 14.9183 16.9952 14.8225 17.0615C13.0682 18.2717 10.9282 18.7901 8.81452 18.517C6.70083 18.2439 4.7629 17.1985 3.37381 15.5821C1.98473 13.9658 1.2427 11.8926 1.29058 9.76192C1.33847 7.6312 2.17288 5.59351 3.63318 4.04116C5.09348 2.48881 7.07642 1.53154 9.20024 1.35365C11.3241 1.17577 13.4386 1.78984 15.1368 3.07765C16.835 4.36546 17.9967 6.23595 18.3984 8.32902C18.8 10.4221 18.4132 12.5898 17.3124 14.4147C17.2615 14.4997 17.2289 14.5943 17.2166 14.6926C17.2043 14.7908 17.2126 14.8906 17.241 14.9854Z" fill="black"/>
</svg>
