<svg width="80" height="58" viewBox="0 0 80 58" fill="none" xmlns="http://www.w3.org/2000/svg">
<path d="M8.88889 57.7778H71.1111C73.4686 57.7778 75.7295 56.8413 77.3965 55.1743C79.0635 53.5073 80 51.2464 80 48.8889V13.8889L7.14444 57.6022C7.70889 57.7133 8.29111 57.7778 8.88889 57.7778ZM71.1111 0H8.88889C6.53141 0 4.27049 0.936505 2.6035 2.60349C0.936505 4.27048 0 6.53141 0 8.88889L0 43.8889L72.8556 0.175556C72.2812 0.0605153 71.6969 0.00171899 71.1111 0ZM21.4 24.4889L14.6 19.2889L7.8 24.4889L10.4 16.0889L3.6 10.8889H12L14.6 2.48889L17.2 10.8889H25.6L18.8 16.0889L21.4 24.4889Z" fill="#007FFF"/>
<path d="M17.2 10.8891L14.6 2.48911L12 10.8891H3.6L10.4 16.0891L7.8 24.4891L14.6 19.2891L21.4 24.4891L18.8 16.0891L25.6 10.8891H17.2ZM7.14444 57.6024L80 13.8891V10.8891L4.16222 56.3913C5.06444 56.9602 6.06444 57.3869 7.14444 57.6024ZM72.8556 0.175781L0 43.8891V46.8891L75.8378 1.38689C74.9263 0.803953 73.9154 0.393435 72.8556 0.175781Z" fill="#F7D618"/>
<path d="M75.8378 1.38672L0 46.8889V48.8889C0 52.0556 1.66889 54.8178 4.16222 56.3912L80 10.8889V8.88894C79.9983 7.38829 79.6155 5.91265 78.8875 4.60043C78.1595 3.28821 77.1101 2.1824 75.8378 1.38672Z" fill="#CE1021"/>
</svg>
