<svg width="30" height="30" viewBox="0 0 30 30" fill="none" xmlns="http://www.w3.org/2000/svg">
<g clip-path="url(#clip0_69_512)">
<path d="M26.4311 4.15492C26.5811 4.15492 26.7311 4.09768 26.8455 3.9833L27.872 2.9568C28.1008 2.72799 28.1008 2.35697 27.872 2.12811C27.6431 1.89936 27.2721 1.89936 27.0433 2.12811L26.0168 3.15461C25.788 3.38342 25.788 3.75443 26.0168 3.9833C26.1313 4.09768 26.2812 4.15492 26.4311 4.15492Z" fill="#141414"/>
<path d="M18.6233 3.98324C18.7378 4.09762 18.8877 4.15486 19.0377 4.15486C19.1876 4.15486 19.3376 4.09762 19.452 3.98324C19.6808 3.75443 19.6808 3.38342 19.452 3.15455L18.4255 2.12811C18.1967 1.89936 17.8257 1.89936 17.5968 2.12811C17.368 2.35691 17.368 2.72793 17.5968 2.9568L18.6233 3.98324Z" fill="#141414"/>
<path d="M22.7344 10.7359C24.6479 10.7359 26.2046 9.17918 26.2046 7.26568C26.2046 5.35219 24.6479 3.79541 22.7344 3.79541C20.8209 3.79541 19.2642 5.35213 19.2642 7.26568C19.2642 9.17918 20.8209 10.7359 22.7344 10.7359ZM22.7344 4.96734C24.0018 4.96734 25.0328 5.99842 25.0328 7.26574C25.0328 8.53307 24.0018 9.56408 22.7344 9.56408C21.4671 9.56408 20.4361 8.53307 20.4361 7.26574C20.4361 5.99842 21.4671 4.96734 22.7344 4.96734Z" fill="#141414"/>
<path d="M26.8455 10.548C26.6167 10.3193 26.2457 10.3193 26.0168 10.548C25.788 10.7768 25.788 11.1479 26.0168 11.3767L27.0433 12.4032C27.1578 12.5176 27.3077 12.5748 27.4576 12.5748C27.6076 12.5748 27.7576 12.5176 27.872 12.4032C28.1008 12.1744 28.1008 11.8034 27.872 11.5745L26.8455 10.548Z" fill="#141414"/>
<path d="M18.6233 10.548L17.5968 11.5745C17.368 11.8033 17.368 12.1744 17.5968 12.4032C17.7113 12.5176 17.8612 12.5748 18.0112 12.5748C18.1611 12.5748 18.3111 12.5176 18.4255 12.4032L19.452 11.3767C19.6808 11.1479 19.6808 10.7769 19.452 10.548C19.2232 10.3193 18.8521 10.3193 18.6233 10.548Z" fill="#141414"/>
<path d="M27.3765 7.26562C27.3765 7.58918 27.6388 7.85156 27.9624 7.85156H29.4141C29.7377 7.85156 30 7.58918 30 7.26562C30 6.94207 29.7377 6.67969 29.4141 6.67969H27.9624C27.6388 6.67969 27.3765 6.94207 27.3765 7.26562Z" fill="#141414"/>
<path d="M22.7344 2.62354C23.058 2.62354 23.3203 2.36115 23.3203 2.0376V0.585937C23.3203 0.262383 23.058 0 22.7344 0C22.4108 0 22.1484 0.262383 22.1484 0.585937V2.03754C22.1484 2.36115 22.4108 2.62354 22.7344 2.62354Z" fill="#141414"/>
<path d="M22.1484 12.4937V13.9453C22.1484 14.2689 22.4108 14.5313 22.7344 14.5313C23.058 14.5313 23.3203 14.2689 23.3203 13.9453V12.4937C23.3203 12.1701 23.058 11.9077 22.7344 11.9077C22.4108 11.9077 22.1484 12.17 22.1484 12.4937Z" fill="#141414"/>
<path d="M16.0547 7.85156H17.5064C17.83 7.85156 18.0923 7.58918 18.0923 7.26562C18.0923 6.94207 17.83 6.67969 17.5064 6.67969H16.0547C15.7311 6.67969 15.4688 6.94207 15.4688 7.26562C15.4688 7.58924 15.7311 7.85156 16.0547 7.85156Z" fill="#141414"/>
<path d="M29.4141 28.8279H21.3436V27.1873H28.1416C28.5833 27.1873 28.9904 26.9861 29.2587 26.6354C29.527 26.2846 29.6144 25.8389 29.4988 25.4128L27.2725 17.2097C27.1067 16.5986 26.5486 16.1718 25.9154 16.1718H12.3335C11.7003 16.1718 11.1422 16.5986 10.9764 17.2097L9.87245 21.2774V12.3785L12.1838 13.713C12.9091 14.1317 13.7367 14.3476 14.5672 14.3475C14.9865 14.3475 15.4065 14.2925 15.8145 14.1808C16.1252 14.0957 16.3081 13.7725 16.2249 13.4612C15.897 12.2339 15.1105 11.208 14.0103 10.5728L9.93104 8.21765V3.53587C9.93104 2.26538 9.43593 1.07131 8.53488 0.171608C8.30695 -0.0563794 7.9377 -0.0572583 7.70854 0.169322C6.81235 1.05572 6.29831 2.28701 6.29831 3.54747V8.22715L2.23556 10.5728C1.13529 11.208 0.348737 12.2338 0.0200863 13.4641C-0.0632921 13.7754 0.120457 14.0957 0.431353 14.1808C0.839281 14.2925 1.25922 14.3475 1.67863 14.3475C2.50896 14.3475 3.33671 14.1317 4.06204 13.713L6.35696 12.388V17.783C6.35696 18.1066 6.61929 18.369 6.9429 18.369C7.26651 18.369 7.52883 18.1066 7.52883 17.783V11.7115L8.12297 11.3685L8.7007 11.702V28.828H7.52883V23.0566C7.52883 22.733 7.26651 22.4706 6.9429 22.4706C6.61929 22.4706 6.35696 22.733 6.35696 23.0566V28.828H0.586099C0.262487 28.828 0.000164587 29.0904 0.000164587 29.4139C0.000164587 29.7375 0.262487 29.9999 0.586099 29.9999H29.4141C29.7377 29.9999 30 29.7375 30 29.4139C30 29.0904 29.7377 28.8279 29.4141 28.8279ZM8.9591 9.27585C8.9591 9.74143 8.58029 10.1202 8.11465 10.1202C7.64901 10.1202 7.2702 9.74143 7.2702 9.27585C7.2702 8.81021 7.64901 8.4314 8.11465 8.4314C8.58029 8.4314 8.9591 8.81021 8.9591 9.27585ZM14.8738 13.163C14.1467 13.2253 13.406 13.0655 12.7697 12.6981L9.45222 10.7828C9.77589 10.4952 10.0065 10.1054 10.093 9.66438L13.4243 11.5877C14.0657 11.958 14.5656 12.5045 14.8738 13.163ZM8.11986 1.4926C8.53541 2.08785 8.75918 2.7946 8.75918 3.53587V7.36577C8.55662 7.29727 8.34006 7.25954 8.11465 7.25954C7.88924 7.25954 7.67268 7.29727 7.47012 7.36577V3.54747C7.47018 2.81259 7.70209 2.09089 8.11986 1.4926ZM3.47604 12.6981C2.83966 13.0656 2.09869 13.2259 1.3716 13.1629C1.67928 12.5054 2.17949 11.9583 2.82144 11.5877L6.13782 9.67294C6.22618 10.1134 6.45868 10.5022 6.78364 10.7885L3.47604 12.6981ZM14.741 26.0155L15.0272 23.9061H18.5334V26.0155H14.741ZM10.1073 26.0155C10.0065 26.0155 9.94739 25.9579 9.92114 25.9235C9.89483 25.8891 9.8547 25.817 9.88112 25.7197L10.3733 23.9061H13.8446L13.5583 26.0155H10.1073ZM11.2638 20.6249H14.2898L14.0036 22.7342H10.6914L11.2638 20.6249ZM18.5333 17.3436V19.453H15.6314L15.9176 17.3436H18.5333ZM22.3209 17.3436L22.6071 19.453H19.7052V17.3436H22.3209ZM27.5576 22.7342H24.235L23.9488 20.6249H26.9852L27.5576 22.7342ZM23.0523 22.7342H19.7052V20.6249H22.7661L23.0523 22.7342ZM18.5333 20.6249V22.7342H15.1862L15.4725 20.6249H18.5333ZM19.7052 23.9061H23.2114L23.4976 26.0155H19.7052V23.9061ZM28.3279 25.9235C28.3016 25.9579 28.2424 26.0155 28.1417 26.0155H24.6802L24.394 23.9061H27.8757L28.3679 25.7197C28.3942 25.817 28.3541 25.8891 28.3279 25.9235ZM26.1416 17.5166L26.6671 19.453H23.7897L23.5034 17.3436H25.9154C26.0209 17.3436 26.114 17.4148 26.1416 17.5166ZM12.3335 17.3436H14.7351L14.4488 19.453H11.5819L12.1074 17.5166C12.135 17.4148 12.228 17.3436 12.3335 17.3436ZM9.87245 27.1678C9.94921 27.1806 10.0277 27.1873 10.1073 27.1873H16.8905V28.8279H9.87245V27.1678ZM18.0623 28.8279V27.1873H20.1717V28.8279H18.0623Z" fill="#141414"/>
<path d="M6.94281 21.0054C7.09691 21.0054 7.24808 20.9432 7.35707 20.8336C7.46605 20.7247 7.52875 20.5735 7.52875 20.4194C7.52875 20.2653 7.46605 20.1142 7.35707 20.0052C7.24808 19.8962 7.09691 19.8335 6.94281 19.8335C6.78871 19.8335 6.63754 19.8961 6.52855 20.0052C6.41957 20.1142 6.35687 20.2653 6.35687 20.4194C6.35687 20.5735 6.41957 20.7247 6.52855 20.8336C6.63754 20.9433 6.78871 21.0054 6.94281 21.0054Z" fill="#141414"/>
</g>
<defs>
<clipPath id="clip0_69_512">
<rect width="30" height="30" fill="white"/>
</clipPath>
</defs>
</svg>
