<svg width="30" height="30" viewBox="0 0 30 30" fill="none" xmlns="http://www.w3.org/2000/svg">
<g opacity="0.5" clip-path="url(#clip0_69_600)">
<path d="M26.3463 0H3.65373C1.63904 0 0 1.63904 0 3.65373V26.3462C0 28.361 1.63904 30 3.65373 30H15.2848C15.774 30 16.1706 29.6034 16.1706 29.1142V18.3734C16.1706 17.8842 15.774 17.4875 15.2848 17.4875H12.1007V14.9661H15.2848C15.774 14.9661 16.1706 14.5695 16.1706 14.0803V10.4948C16.1706 8.55439 17.7492 6.97576 19.6897 6.97576H22.7619V9.49723H19.6897C19.1396 9.49723 18.6921 9.94482 18.6921 10.4948V14.0803C18.6921 14.5695 19.0887 14.9661 19.5779 14.9661H22.762V17.4876H19.5779C19.0887 17.4876 18.6921 17.8842 18.6921 18.3734V29.1142C18.6921 29.6034 19.0887 30.0001 19.5779 30.0001H26.3463C28.361 30 30 28.361 30 26.3463V3.65373C30 1.63904 28.361 0 26.3463 0ZM28.2284 26.3463C28.2284 27.3841 27.3841 28.2284 26.3462 28.2284H20.4637H20.4636V19.2592H23.6477C24.1369 19.2592 24.5335 18.8626 24.5335 18.3734V14.0803C24.5335 13.5911 24.1369 13.1945 23.6477 13.1945H20.4636V11.2689H23.6477C24.1369 11.2689 24.5335 10.8722 24.5335 10.383V6.09C24.5335 5.6008 24.1369 5.20418 23.6477 5.20418H19.6896C16.7723 5.20418 14.3989 7.57758 14.3989 10.4948V13.1945H11.2149C10.7257 13.1945 10.3291 13.5911 10.3291 14.0803V18.3734C10.3291 18.8626 10.7257 19.2592 11.2149 19.2592H14.3989V28.2284H3.65373C2.61592 28.2284 1.77158 27.3841 1.77158 26.3462V3.65373C1.77158 2.61592 2.61586 1.77158 3.65373 1.77158H26.3462C27.384 1.77158 28.2284 2.61586 28.2284 3.65373V26.3463V26.3463Z" fill="black"/>
</g>
<defs>
<clipPath id="clip0_69_600">
<rect width="30" height="30" fill="white"/>
</clipPath>
</defs>
</svg>
