<svg width="30" height="30" viewBox="0 0 30 30" fill="none" xmlns="http://www.w3.org/2000/svg">
<g opacity="0.5">
<path d="M21.8793 0H8.12073C3.64288 0 0 3.64288 0 8.12073V21.8795C0 26.3571 3.64288 30 8.12073 30H21.8795C26.3571 30 30 26.3571 30 21.8795V8.12073C30 3.64288 26.3571 0 21.8793 0V0ZM28.2413 21.8795C28.2413 25.3873 25.3873 28.2413 21.8793 28.2413H8.12073C4.61266 28.2413 1.75873 25.3873 1.75873 21.8795V8.12073C1.75873 4.61266 4.61266 1.75873 8.12073 1.75873H21.8795C25.3873 1.75873 28.2413 4.61266 28.2413 8.12073V21.8795Z" fill="black"/>
<path d="M15.0001 6.79688C10.477 6.79688 6.79724 10.4766 6.79724 14.9998C6.79724 19.5229 10.477 23.2027 15.0001 23.2027C19.5233 23.2027 23.203 19.5229 23.203 14.9998C23.203 10.4766 19.5233 6.79688 15.0001 6.79688ZM15.0001 21.4439C11.447 21.4439 8.55597 18.5532 8.55597 14.9998C8.55597 11.4466 11.447 8.5556 15.0001 8.5556C18.5535 8.5556 21.4443 11.4466 21.4443 14.9998C21.4443 18.5532 18.5535 21.4439 15.0001 21.4439Z" fill="black"/>
<path d="M23.399 3.88379C22.0623 3.88379 20.9751 4.97121 20.9751 6.30765C20.9751 7.64432 22.0623 8.73174 23.399 8.73174C24.7356 8.73174 25.823 7.64432 25.823 6.30765C25.823 4.97098 24.7356 3.88379 23.399 3.88379ZM23.399 6.97278C23.0323 6.97278 22.7338 6.67432 22.7338 6.30765C22.7338 5.94075 23.0323 5.64252 23.399 5.64252C23.7659 5.64252 24.0643 5.94075 24.0643 6.30765C24.0643 6.67432 23.7659 6.97278 23.399 6.97278Z" fill="black"/>
</g>
</svg>
