<svg width="80" height="58" viewBox="0 0 80 58" fill="none" xmlns="http://www.w3.org/2000/svg">
<path d="M80 48.8889C80 51.2464 79.0635 53.5073 77.3965 55.1743C75.7295 56.8413 73.4686 57.7778 71.1111 57.7778H8.88889C6.53141 57.7778 4.27049 56.8413 2.6035 55.1743C0.936505 53.5073 0 51.2464 0 48.8889V8.88889C0 6.53141 0.936505 4.27048 2.6035 2.60349C4.27049 0.936505 6.53141 0 8.88889 0H71.1111C73.4686 0 75.7295 0.936505 77.3965 2.60349C79.0635 4.27048 80 6.53141 80 8.88889V48.8889Z" fill="#006600"/>
<path d="M0 17.7778H80V40.0001H0V17.7778Z" fill="#BB1600"/>
<path d="M71.1111 0H8.88889C6.53141 0 4.27049 0.936505 2.6035 2.60349C0.936505 4.27048 0 6.53141 0 8.88889L0 17.7778H80V8.88889C80 6.53141 79.0635 4.27048 77.3965 2.60349C75.7295 0.936505 73.4686 0 71.1111 0Z" fill="#141414"/>
<path d="M0 17.7778H80V20.0001H0V17.7778ZM0 37.7778H80V40.0001H0V37.7778Z" fill="#EEEEEE"/>
<path d="M51.2306 9.78651C51.084 9.69984 50.8173 9.98429 49.4662 11.4843C48.9862 12.0176 48.3862 12.6821 47.7218 13.3954C46.3706 14.8465 44.9573 16.6421 45.9818 17.6954L29.8373 44.831C29.8129 44.871 29.7951 44.9354 29.844 45.0243C29.9202 45.131 30.0175 45.221 30.1299 45.2886C30.2423 45.3563 30.3673 45.4002 30.4973 45.4176H30.504C30.6062 45.4176 30.6551 45.371 30.6795 45.331L46.8306 18.1865C48.2218 18.5154 49.1062 16.4443 49.7306 14.5954C50.0418 13.6687 50.3395 12.8265 50.5773 12.151C51.2484 10.2487 51.3684 9.86873 51.2306 9.78651Z" fill="#141414"/>
<path d="M49.5666 11.5733C49.0866 12.1066 48.4866 12.7711 47.8199 13.4866C45.851 15.6022 45.3221 16.8822 46.111 17.6378L46.151 17.6733L29.951 44.9C29.9421 44.9178 29.9532 44.9466 29.9621 44.96C30.0931 45.1328 30.2858 45.2482 30.4999 45.2822H30.5044C30.5266 45.2822 30.5555 45.28 30.5666 45.26L46.7421 18.0733L46.7688 18.0289L46.8177 18.0422C47.8355 18.3311 48.6977 17.2533 49.6044 14.5489C49.9155 13.6222 50.2132 12.78 50.451 12.1022C50.8244 11.0466 51.1488 10.1266 51.1488 9.91553C50.9666 10.0177 50.3155 10.7422 49.5666 11.5733Z" fill="white"/>
<path d="M34.0178 17.6953C35.0422 16.642 33.6311 14.8464 32.2778 13.3953C31.6134 12.6798 31.0134 12.0176 30.5334 11.4842C29.1822 9.98644 28.9156 9.69978 28.7689 9.78644C28.6311 9.87089 28.7511 10.2487 29.42 12.1487C29.6578 12.8242 29.9556 13.6664 30.2667 14.5931C30.8889 16.4442 31.7734 18.5131 33.1667 18.1842L49.3178 45.3287C49.3422 45.3687 49.3911 45.4153 49.4934 45.4153H49.5C49.63 45.3979 49.755 45.354 49.8674 45.2863C49.9798 45.2187 50.0771 45.1287 50.1534 45.022C50.2 44.9331 50.1845 44.8687 50.16 44.8287L34.0178 17.6953Z" fill="#141414"/>
<path d="M33.8884 17.638C34.6773 16.8824 34.1506 15.6024 32.1795 13.4869C31.5129 12.7713 30.9151 12.1069 30.4329 11.5735C29.684 10.7424 29.0306 10.018 28.8462 9.91797C28.8462 10.1291 29.1706 11.0491 29.544 12.1046C29.7817 12.7824 30.0817 13.6246 30.3906 14.5513C31.2995 17.2557 32.1595 18.3335 33.1773 18.0446L33.2262 18.0313L33.2529 18.0757L49.4284 45.2624C49.4395 45.2824 49.4706 45.2846 49.4906 45.2846H49.4951C49.7095 45.2515 49.9025 45.1359 50.0329 44.9624C50.0417 44.9469 50.0529 44.918 50.044 44.9024L33.844 17.6757L33.8884 17.638Z" fill="white"/>
<path d="M40.0401 12.1288L40.0001 12.0977L39.9601 12.1288C34.4223 16.2843 31.729 21.7532 31.729 28.8465C31.729 35.9399 34.4201 41.4088 39.9601 45.5665L40.0001 45.5954L40.0401 45.5665C45.5779 41.411 48.2712 35.9421 48.2712 28.8465C48.2712 21.751 45.5779 16.2799 40.0401 12.1288Z" fill="#141414"/>
<path d="M46.3973 20.1313C45.0573 17.1024 42.9507 14.4869 39.9973 12.2646C37.0507 14.4846 34.9462 17.0958 33.604 20.1158C34.7707 22.7402 35.3418 25.6002 35.3418 28.8647C35.3418 32.1246 34.7729 34.978 33.6107 37.5935C34.9529 40.6069 37.0551 43.2135 39.9951 45.4313C42.9418 43.2113 45.0462 40.6002 46.3862 37.578C45.2284 34.9602 44.6618 32.1091 44.6618 28.8647C44.6662 25.6158 45.2351 22.7602 46.3973 20.1313Z" fill="#BB1600"/>
<path d="M39.9997 30.949C40.6797 30.949 41.2331 30.0068 41.2331 28.8468C41.2331 27.6868 40.6797 26.7424 39.9997 26.7424C39.3197 26.7424 38.7686 27.6846 38.7686 28.8468C38.7664 30.0068 39.3197 30.949 39.9997 30.949ZM39.4864 25.4001C38.3708 23.7579 37.8286 21.6735 37.8286 19.1312C37.8286 16.5868 38.3708 14.5024 39.4864 12.8579V25.4001ZM40.5131 25.4001C41.6264 23.7579 42.1664 21.6735 42.1664 19.1312C42.1664 16.5868 41.6264 14.5024 40.5131 12.8579V25.4001ZM39.4864 32.289C38.3708 33.929 37.8286 36.0157 37.8286 38.5579C37.8286 41.1046 38.3708 43.1846 39.4864 44.829V32.289ZM40.5131 32.289C41.6264 33.929 42.1664 36.0157 42.1664 38.5579C42.1664 41.1046 41.6264 43.1846 40.5131 44.829V32.289Z" fill="white"/>
</svg>
