<svg width="20" height="20" viewBox="0 0 20 20" fill="none" xmlns="http://www.w3.org/2000/svg">
    <path d="M19.8175 0.182443C19.904 0.269108 19.9632 0.379286 19.9876 0.49929C20.0121 0.619294 20.0007 0.743835 19.955 0.857443L12.6812 19.0412C12.6171 19.2013 12.5101 19.3407 12.3719 19.4439C12.2337 19.5471 12.0697 19.6102 11.898 19.6262C11.7262 19.6423 11.5534 19.6106 11.3985 19.5347C11.2436 19.4589 11.1126 19.3417 11.02 19.1962L7.04748 12.9524L0.803726 8.97994C0.657873 8.88742 0.540415 8.75641 0.464313 8.60135C0.388211 8.4463 0.356423 8.27324 0.372457 8.10126C0.388491 7.92928 0.451723 7.76508 0.555177 7.62676C0.65863 7.48845 0.798283 7.38141 0.958726 7.31744L19.1425 0.0461931C19.2561 0.000458393 19.3806 -0.0108913 19.5006 0.013554C19.6206 0.0379992 19.7308 0.097162 19.8175 0.183693V0.182443ZM8.29498 12.5874L11.7462 18.0099L17.6625 3.21994L8.29498 12.5874ZM16.7787 2.33619L1.98873 8.25244L7.41248 11.7024L16.78 2.33619H16.7787Z"
          fill="white"/>
</svg>
