<svg width="30" height="30" viewBox="0 0 30 30" fill="none" xmlns="http://www.w3.org/2000/svg">
<g clip-path="url(#clip0_69_528)">
<path d="M29.5713 13.6653L25.0216 9.79065C24.752 9.56084 24.4083 9.43428 24.0539 9.43428H22.8732C22.7146 9.43428 22.5585 9.4603 22.4099 9.50905C21.9071 9.10094 21.2238 8.88596 20.7109 8.77557C20.4793 8.72577 20.2399 8.79526 20.0705 8.96161C19.9013 9.12789 19.8276 9.36602 19.8735 9.59852C19.9825 10.1519 20.2093 10.9055 20.6718 11.4238L20.487 11.6792C20.4608 11.7154 20.4186 11.737 20.3742 11.737H15.002V10.3529C15.002 9.66057 14.4388 9.09737 13.7465 9.09737H1.25549C0.563203 9.09737 0 9.66063 0 10.3529V14.8246C0 15.0672 0.196758 15.264 0.439453 15.264C0.682148 15.264 0.878906 15.0672 0.878906 14.8246V10.3529C0.878906 10.1453 1.04783 9.97633 1.25549 9.97633H13.7465C13.9542 9.97633 14.1231 10.1453 14.1231 10.3529V28.7169C14.1231 28.9246 13.9542 29.0935 13.7465 29.0935H1.25549C1.04783 29.0935 0.878906 28.9246 0.878906 28.7169V16.8753C0.878906 16.6326 0.682148 16.4359 0.439453 16.4359C0.196758 16.4359 0 16.6326 0 16.8753V28.7169C0 29.4092 0.563203 29.9724 1.25549 29.9724H13.7465C14.4388 29.9724 15.002 29.4092 15.002 28.7169V22.7106C16.3659 23.0347 17.8804 23.1968 19.3043 22.5661V27.6036C19.3043 28.0424 19.6613 28.3993 20.1 28.3993H21.2525C21.6525 28.3993 21.9916 28.0998 22.0413 27.703L22.8428 21.333C22.8524 21.2572 22.8778 21.1864 22.9182 21.1225L23.5387 20.1416C23.6685 19.9366 23.6074 19.6651 23.4023 19.5353C23.1974 19.4056 22.9257 19.4667 22.796 19.6718L22.1757 20.6523C22.0657 20.8258 21.9968 21.0177 21.9708 21.2229L21.1784 27.5204H20.1832V22.2944C20.1832 22.0461 20.0567 21.8205 19.8448 21.691C19.6324 21.5613 19.373 21.5517 19.151 21.6656C18.3878 22.0576 17.2971 22.3731 15.002 21.8046V15.7293C15.2531 15.56 15.5496 15.4671 15.8555 15.4671H16.6184C17.9162 15.4671 18.9721 14.4112 18.9721 13.1134C18.9721 12.9457 18.953 12.779 18.9176 12.6159H20.3743C20.6998 12.6159 21.0081 12.4584 21.199 12.1944L21.3419 11.9969C21.4241 12.0513 21.507 12.1014 21.59 12.1457C21.8036 12.2597 22.07 12.1796 22.1846 11.9649C22.2988 11.7508 22.2179 11.4846 22.0038 11.3703C21.7863 11.2543 21.5657 11.085 21.3657 10.8808C21.0693 10.5782 20.8942 10.0822 20.7972 9.701C21.1774 9.80495 21.6711 9.98916 21.9673 10.2916C22.1776 10.5064 22.3476 10.7413 22.459 10.9711C22.5649 11.1895 22.8276 11.2807 23.0462 11.1749C23.2646 11.069 23.3558 10.8061 23.2499 10.5878C23.2055 10.496 23.154 10.4043 23.0975 10.3132H24.054C24.1996 10.3132 24.3408 10.3652 24.4517 10.4597L27.3696 12.9447C26.8589 13.634 26.581 14.4667 26.581 15.3341C26.581 15.5931 26.6062 15.8503 26.6555 16.1032L25.3331 16.3437C25.0248 16.3993 24.7516 16.5832 24.5832 16.8489L23.8924 17.9405C23.7626 18.1455 23.8236 18.417 24.0287 18.5468C24.2324 18.6757 24.5044 18.6169 24.6351 18.4104L25.3257 17.3191C25.3625 17.261 25.4221 17.2207 25.4896 17.2086L28.9988 16.5705C29.5788 16.4649 30 15.9603 30 15.3704V14.594C30 14.2359 29.8437 13.8974 29.5713 13.6653ZM18.0932 13.1134C18.0932 13.9266 17.4316 14.5882 16.6184 14.5882H15.8555C15.5614 14.5882 15.2725 14.6422 15.002 14.7447V12.6159H18.0056C18.0628 12.7752 18.0932 12.9436 18.0932 13.1134ZM29.1211 15.3704C29.1211 15.5352 29.0036 15.6762 28.8415 15.7056L27.5201 15.9459C27.4801 15.7448 27.4598 15.5401 27.4598 15.334C27.4598 14.6768 27.6639 14.0448 28.0402 13.5158L29.0014 14.3344C29.0775 14.3992 29.1212 14.4939 29.1212 14.594V15.3704H29.1211Z" fill="#141414"/>
<path d="M24.2758 13.5611C24.5186 13.5611 24.7153 13.3643 24.7153 13.1216V12.7725C24.7153 12.5298 24.5186 12.333 24.2758 12.333C24.0331 12.333 23.8364 12.5298 23.8364 12.7725V13.1216C23.8364 13.3643 24.0331 13.5611 24.2758 13.5611Z" fill="#141414"/>
<path d="M15.2997 7.8733C15.3702 7.91648 15.4498 7.93799 15.5293 7.93799C15.6117 7.93799 15.6941 7.91484 15.7662 7.86867C15.8929 7.78758 18.8692 5.85387 18.8692 3.36768C18.8692 1.52607 17.371 0.027832 15.5293 0.027832C13.6877 0.027832 12.1895 1.52607 12.1895 3.36768C12.1895 5.93848 15.1728 7.79549 15.2997 7.8733ZM15.5293 0.906738C16.8863 0.906738 17.9903 2.0107 17.9903 3.36768C17.9903 4.39025 17.2757 5.3458 16.6763 5.96742C16.2348 6.42522 15.7872 6.77537 15.525 6.96633C14.8701 6.50373 13.0684 5.07568 13.0684 3.36768C13.0684 2.01076 14.1724 0.906738 15.5293 0.906738Z" fill="#141414"/>
<path d="M15.5294 4.77393C16.3047 4.77393 16.9356 4.14305 16.9356 3.36768C16.9356 2.5923 16.3047 1.96143 15.5294 1.96143C14.7539 1.96143 14.1231 2.5923 14.1231 3.36768C14.1231 4.14305 14.7539 4.77393 15.5294 4.77393ZM15.5294 2.84033C15.8202 2.84033 16.0567 3.07693 16.0567 3.36768C16.0567 3.65842 15.8202 3.89502 15.5294 3.89502C15.2386 3.89502 15.002 3.65842 15.002 3.36768C15.002 3.07693 15.2386 2.84033 15.5294 2.84033Z" fill="#141414"/>
<path d="M12.2393 28.039C12.6964 28.039 13.0683 27.6671 13.0683 27.2099V11.8603C13.0683 11.4031 12.6964 11.0312 12.2393 11.0312H9.0382C8.57484 11.0312 8.19785 11.4082 8.19785 11.8716C8.19785 12.2559 7.88525 12.5685 7.501 12.5685C7.11674 12.5685 6.80414 12.2559 6.80414 11.8716C6.80414 11.4082 6.42715 11.0312 5.96379 11.0312H2.76264C2.30549 11.0312 1.93359 11.4031 1.93359 11.8603V27.2099C1.93359 27.667 2.30549 28.039 2.76264 28.039H12.2393V28.039ZM2.8125 11.9102H5.9257C5.94627 12.7613 6.645 13.4474 7.501 13.4474C8.35699 13.4474 9.05578 12.7613 9.07629 11.9102H12.1894V27.1601H2.8125V11.9102Z" fill="#141414"/>
<path d="M4.68347 22.3647C4.44078 22.3647 4.24402 22.5615 4.24402 22.8042V23.5546C4.24402 23.7973 4.44078 23.9941 4.68347 23.9941C4.92617 23.9941 5.12292 23.7973 5.12292 23.5546V22.8042C5.12292 22.5615 4.92617 22.3647 4.68347 22.3647Z" fill="#141414"/>
<path d="M6.56177 21.3755C6.31907 21.3755 6.12231 21.5722 6.12231 21.8149V23.5545C6.12231 23.7972 6.31907 23.9939 6.56177 23.9939C6.80446 23.9939 7.00122 23.7972 7.00122 23.5545V21.8149C7.00122 21.5722 6.80446 21.3755 6.56177 21.3755Z" fill="#141414"/>
<path d="M8.44019 20.3862C8.19749 20.3862 8.00073 20.583 8.00073 20.8257V23.5543C8.00073 23.797 8.19749 23.9938 8.44019 23.9938C8.68288 23.9938 8.87964 23.797 8.87964 23.5543V20.8257C8.87964 20.583 8.68288 20.3862 8.44019 20.3862Z" fill="#141414"/>
<path d="M10.3185 19.3975C10.0758 19.3975 9.87909 19.5942 9.87909 19.8369V23.5547C9.87909 23.7974 10.0758 23.9942 10.3185 23.9942C10.5612 23.9942 10.758 23.7974 10.758 23.5547V19.8369C10.758 19.5942 10.5612 19.3975 10.3185 19.3975Z" fill="#141414"/>
<path d="M10.877 15.4292L9.46488 14.9024C9.23742 14.8175 8.98435 14.9331 8.89957 15.1605C8.81472 15.3879 8.93027 15.641 9.15767 15.7258L9.63263 15.903L4.64707 18.4409C4.4308 18.551 4.34467 18.8156 4.45476 19.0319C4.5324 19.1844 4.68668 19.2721 4.84676 19.2721C4.91384 19.2721 4.98193 19.2567 5.04574 19.2242L10.0313 16.6863L9.89513 17.1746C9.82992 17.4084 9.96656 17.6507 10.2003 17.7159C10.4355 17.7815 10.6769 17.6431 10.7417 17.4107L11.1466 15.959C11.208 15.7392 11.0909 15.5089 10.877 15.4292Z" fill="#141414"/>
</g>
<defs>
<clipPath id="clip0_69_528">
<rect width="30" height="30" fill="white"/>
</clipPath>
</defs>
</svg>
