<svg width="18" height="25" viewBox="0 0 18 25" fill="none" xmlns="http://www.w3.org/2000/svg">
<path opacity="0.4" d="M8.75 5.625C9.5788 5.625 10.3737 5.95424 10.9597 6.54029C11.5458 7.12634 11.875 7.9212 11.875 8.75C11.875 9.16038 11.7942 9.56674 11.6371 9.94589C11.4801 10.325 11.2499 10.6695 10.9597 10.9597C10.6695 11.2499 10.325 11.4801 9.94589 11.6371C9.56674 11.7942 9.16038 11.875 8.75 11.875C7.9212 11.875 7.12634 11.5458 6.54029 10.9597C5.95424 10.3737 5.625 9.5788 5.625 8.75C5.625 7.9212 5.95424 7.12634 6.54029 6.54029C7.12634 5.95424 7.9212 5.625 8.75 5.625ZM8.75 0C11.0706 0 13.2962 0.921872 14.9372 2.56282C16.5781 4.20376 17.5 6.42936 17.5 8.75C17.5 15.3125 8.75 25 8.75 25C8.75 25 0 15.3125 0 8.75C0 6.42936 0.921872 4.20376 2.56282 2.56282C4.20376 0.921872 6.42936 0 8.75 0ZM8.75 2.5C7.0924 2.5 5.50269 3.15848 4.33058 4.33058C3.15848 5.50269 2.5 7.0924 2.5 8.75C2.5 10 2.5 12.5 8.75 20.8875C15 12.5 15 10 15 8.75C15 7.0924 14.3415 5.50269 13.1694 4.33058C11.9973 3.15848 10.4076 2.5 8.75 2.5Z" fill="black"/>
</svg>
