<svg width="20" height="18" viewBox="0 0 20 18" fill="none" xmlns="http://www.w3.org/2000/svg">
<path opacity="0.6" d="M10 17.7936C9.71527 17.7936 9.44077 17.6904 9.22684 17.5031C8.41888 16.7966 7.63992 16.1327 6.95267 15.547L6.94916 15.544C4.93423 13.8269 3.19427 12.3441 1.98364 10.8833C0.630341 9.25034 0 7.70203 0 6.01059C0 4.36722 0.563507 2.8511 1.58661 1.74133C2.62192 0.618439 4.04251 0 5.58716 0C6.74164 0 7.79892 0.36499 8.72955 1.08475C9.19922 1.44806 9.62494 1.8927 10 2.41135C10.3752 1.8927 10.8008 1.44806 11.2706 1.08475C12.2012 0.36499 13.2585 0 14.413 0C15.9575 0 17.3782 0.618439 18.4135 1.74133C19.4366 2.8511 20 4.36722 20 6.01059C20 7.70203 19.3698 9.25034 18.0165 10.8832C16.8059 12.3441 15.0661 13.8268 13.0515 15.5437C12.363 16.1302 11.5828 16.7952 10.773 17.5034C10.5592 17.6904 10.2846 17.7936 10 17.7936ZM5.58716 1.17157C4.37363 1.17157 3.25882 1.65588 2.44781 2.5354C1.62476 3.42819 1.17142 4.66232 1.17142 6.01059C1.17142 7.43317 1.70013 8.70544 2.88559 10.1358C4.03137 11.5184 5.73563 12.9707 7.70889 14.6524L7.71255 14.6555C8.4024 15.2434 9.18442 15.9099 9.99832 16.6216C10.8171 15.9085 11.6003 15.2409 12.2916 14.6521C14.2647 12.9704 15.9688 11.5184 17.1146 10.1358C18.2999 8.70544 18.8286 7.43317 18.8286 6.01059C18.8286 4.66232 18.3752 3.42819 17.5522 2.5354C16.7413 1.65588 15.6264 1.17157 14.413 1.17157C13.524 1.17157 12.7078 1.45416 11.9872 2.01141C11.3449 2.50824 10.8975 3.13629 10.6352 3.57574C10.5003 3.80173 10.2629 3.93661 10 3.93661C9.73709 3.93661 9.49966 3.80173 9.36478 3.57574C9.10263 3.13629 8.65524 2.50824 8.01285 2.01141C7.29218 1.45416 6.47598 1.17157 5.58716 1.17157Z" fill="black"/>
</svg>
