<svg width="30" height="30" viewBox="0 0 30 30" fill="none" xmlns="http://www.w3.org/2000/svg">
<path d="M8.77688 2.51953C8.29539 2.52021 7.83382 2.71182 7.4934 3.05233C7.15298 3.39283 6.9615 3.85445 6.96094 4.33594C6.96094 4.44472 7.00415 4.54904 7.08107 4.62596C7.15799 4.70288 7.26231 4.74609 7.37109 4.74609C7.47987 4.74609 7.5842 4.70288 7.66112 4.62596C7.73804 4.54904 7.78125 4.44472 7.78125 4.33594C7.7815 4.07183 7.88652 3.81862 8.07327 3.63187C8.26002 3.44512 8.51324 3.34009 8.77734 3.33984H11.4466C11.5554 3.33984 11.6597 3.29663 11.7367 3.21971C11.8136 3.14279 11.8568 3.03847 11.8568 2.92969C11.8568 2.82091 11.8136 2.71658 11.7367 2.63966C11.6597 2.56274 11.5554 2.51953 11.4466 2.51953H8.77688Z" fill="black"/>
<path d="M13.9038 2.51953H13.1772C13.0685 2.51953 12.9641 2.56274 12.8872 2.63966C12.8103 2.71658 12.7671 2.82091 12.7671 2.92969C12.7671 3.03847 12.8103 3.14279 12.8872 3.21971C12.9641 3.29663 13.0685 3.33984 13.1772 3.33984H13.9038C14.0126 3.33984 14.1169 3.29663 14.1938 3.21971C14.2708 3.14279 14.314 3.03847 14.314 2.92969C14.314 2.82091 14.2708 2.71658 14.1938 2.63966C14.1169 2.56274 14.0126 2.51953 13.9038 2.51953Z" fill="black"/>
<path d="M11.6517 1.93359H13.9038C14.0126 1.93359 14.1169 1.89038 14.1939 1.81346C14.2708 1.73654 14.314 1.63222 14.314 1.52344C14.314 1.41466 14.2708 1.31033 14.1939 1.23341C14.1169 1.15649 14.0126 1.11328 13.9038 1.11328H11.6517C11.543 1.11328 11.4386 1.15649 11.3617 1.23341C11.2848 1.31033 11.2416 1.41466 11.2416 1.52344C11.2416 1.63222 11.2848 1.73654 11.3617 1.81346C11.4386 1.89038 11.543 1.93359 11.6517 1.93359Z" fill="black"/>
<path d="M5.96437 4.74609C6.01829 4.74619 6.07168 4.73564 6.12152 4.71507C6.17135 4.6945 6.21663 4.6643 6.25477 4.6262C6.29291 4.5881 6.32317 4.54285 6.3438 4.49304C6.36443 4.44324 6.37503 4.38985 6.375 4.33594C6.37568 3.69909 6.62894 3.08851 7.07922 2.63814C7.5295 2.18778 8.14002 1.9344 8.77688 1.93359H9.85969C9.96847 1.93359 10.0728 1.89038 10.1497 1.81346C10.2266 1.73654 10.2698 1.63222 10.2698 1.52344C10.2698 1.41466 10.2266 1.31033 10.1497 1.23341C10.0728 1.15649 9.96847 1.11328 9.85969 1.11328H8.77688C7.92254 1.11434 7.10351 1.45422 6.49944 2.05837C5.89538 2.66252 5.55562 3.4816 5.55469 4.33594C5.55466 4.38977 5.56523 4.44308 5.5858 4.49283C5.60637 4.54257 5.63654 4.58778 5.67458 4.62586C5.71263 4.66395 5.7578 4.69417 5.80752 4.7148C5.85724 4.73543 5.91054 4.74606 5.96437 4.74609Z" fill="black"/>
<path d="M19.4468 2.51953C18.9652 2.52009 18.5035 2.71164 18.163 3.05216C17.8225 3.39268 17.6309 3.85437 17.6304 4.33594C17.6304 4.44472 17.6736 4.54904 17.7505 4.62596C17.8274 4.70288 17.9317 4.74609 18.0405 4.74609C18.1493 4.74609 18.2536 4.70288 18.3306 4.62596C18.4075 4.54904 18.4507 4.44472 18.4507 4.33594C18.4509 4.07183 18.556 3.81862 18.7427 3.63187C18.9295 3.44512 19.1827 3.34009 19.4468 3.33984H20.6836C20.7924 3.33984 20.8967 3.29663 20.9736 3.21971C21.0505 3.14279 21.0937 3.03847 21.0937 2.92969C21.0937 2.82091 21.0505 2.71658 20.9736 2.63966C20.8967 2.56274 20.7924 2.51953 20.6836 2.51953H19.4468Z" fill="black"/>
<path d="M22.002 2.92969C22.0019 2.98356 22.0125 3.03691 22.0331 3.08668C22.0537 3.13646 22.0839 3.18169 22.122 3.21978C22.1601 3.25787 22.2053 3.28808 22.2551 3.30869C22.3049 3.32929 22.3582 3.33987 22.4121 3.33984H24.5738C24.6825 3.33984 24.7869 3.29663 24.8638 3.21971C24.9407 3.14279 24.9839 3.03847 24.9839 2.92969C24.9839 2.82091 24.9407 2.71658 24.8638 2.63966C24.7869 2.56274 24.6825 2.51953 24.5738 2.51953H22.4121C22.3582 2.5195 22.3049 2.53009 22.2551 2.55069C22.2053 2.57129 22.1601 2.6015 22.122 2.63959C22.0839 2.67769 22.0537 2.72291 22.0331 2.77269C22.0125 2.82247 22.0019 2.87582 22.002 2.92969Z" fill="black"/>
<path d="M24.0087 1.93359H24.5737C24.6825 1.93359 24.7869 1.89038 24.8638 1.81346C24.9407 1.73654 24.9839 1.63222 24.9839 1.52344C24.9839 1.41466 24.9407 1.31033 24.8638 1.23341C24.7869 1.15649 24.6825 1.11328 24.5737 1.11328H24.0087C23.8999 1.11328 23.7956 1.15649 23.7186 1.23341C23.6417 1.31033 23.5985 1.41466 23.5985 1.52344C23.5985 1.63222 23.6417 1.73654 23.7186 1.81346C23.7956 1.89038 23.8999 1.93359 24.0087 1.93359Z" fill="black"/>
<path d="M16.6343 4.74609C16.7431 4.74609 16.8474 4.70288 16.9243 4.62596C17.0012 4.54904 17.0444 4.44472 17.0444 4.33594C17.0451 3.69901 17.2984 3.08836 17.7488 2.63798C18.1992 2.1876 18.8098 1.93428 19.4468 1.93359H21.7528C21.8616 1.93359 21.9659 1.89038 22.0428 1.81346C22.1197 1.73654 22.1629 1.63222 22.1629 1.52344C22.1629 1.41466 22.1197 1.31033 22.0428 1.23341C21.9659 1.15649 21.8616 1.11328 21.7528 1.11328H19.4468C18.5924 1.11421 17.7732 1.45404 17.169 2.0582C16.5649 2.66237 16.2251 3.48152 16.2241 4.33594C16.2241 4.38981 16.2347 4.44316 16.2553 4.49293C16.2759 4.54271 16.3061 4.58794 16.3442 4.62603C16.3823 4.66412 16.4275 4.69433 16.4773 4.71494C16.5271 4.73554 16.5804 4.74612 16.6343 4.74609Z" fill="black"/>
<path d="M25.6641 14.7036C25.5553 14.7036 25.451 14.7468 25.374 14.8237C25.2971 14.9007 25.2539 15.005 25.2539 15.1138V16.52C25.2539 16.6288 25.2971 16.7331 25.374 16.81C25.451 16.887 25.5553 16.9302 25.6641 16.9302C25.7728 16.9302 25.8772 16.887 25.9541 16.81C26.031 16.7331 26.0742 16.6288 26.0742 16.52V15.1138C26.0742 15.005 26.031 14.9007 25.9541 14.8237C25.8772 14.7468 25.7728 14.7036 25.6641 14.7036Z" fill="black"/>
<path d="M28.4766 26.6601H27.4805V12.1054L28.5255 11.9798C28.6316 11.9645 28.7274 11.9084 28.7926 11.8233C28.8578 11.7383 28.8871 11.6312 28.8743 11.5248C28.8615 11.4184 28.8076 11.3213 28.7241 11.2542C28.6406 11.187 28.5342 11.1552 28.4276 11.1655L20.0738 12.1691L19.8488 7.44977C19.9209 7.41755 19.9822 7.36513 20.0253 7.29884C20.0683 7.23255 20.0913 7.15521 20.0913 7.07617V5.66992C20.0913 5.56116 20.048 5.45687 19.9711 5.37997C19.8942 5.30306 19.7899 5.25983 19.6812 5.25977H14.9937C14.8849 5.25977 14.7806 5.30298 14.7036 5.3799C14.6267 5.45682 14.5835 5.56114 14.5835 5.66992V7.07617C14.5834 7.15556 14.6063 7.23327 14.6496 7.29985C14.6928 7.36643 14.7545 7.419 14.827 7.45117L14.5716 12.8315L9.46383 13.4446L9.17977 7.4493C9.2518 7.41707 9.31298 7.3647 9.35594 7.2985C9.3989 7.2323 9.42179 7.15509 9.42188 7.07617V5.66992C9.42188 5.56114 9.37866 5.45682 9.30174 5.3799C9.22482 5.30298 9.1205 5.25977 9.01172 5.25977H4.32422C4.21544 5.25977 4.11111 5.30298 4.03419 5.3799C3.95728 5.45682 3.91406 5.56114 3.91406 5.66992V7.07617C3.91406 7.15568 3.93719 7.23347 3.98064 7.30006C4.02409 7.36664 4.08598 7.41915 4.15875 7.45117L3.41039 23.1445H3.09844C2.99306 23.1445 2.89173 23.185 2.81546 23.2577C2.73918 23.3304 2.69381 23.4297 2.68875 23.5349L2.53875 26.6601H1.52344C1.46957 26.66 1.41622 26.6706 1.36644 26.6912C1.31666 26.7118 1.27144 26.742 1.23334 26.7801C1.19525 26.8182 1.16504 26.8635 1.14444 26.9132C1.12384 26.963 1.11325 27.0164 1.11328 27.0702V28.4765C1.11325 28.5304 1.12384 28.5837 1.14444 28.6335C1.16504 28.6833 1.19525 28.7285 1.23334 28.7666C1.27144 28.8047 1.31666 28.8349 1.36644 28.8555C1.41622 28.8761 1.46957 28.8867 1.52344 28.8866H28.4766C28.5304 28.8867 28.5838 28.8761 28.6336 28.8555C28.6833 28.8349 28.7286 28.8047 28.7667 28.7666C28.8047 28.7285 28.835 28.6833 28.8556 28.6335C28.8762 28.5837 28.8867 28.5304 28.8867 28.4765V27.0702C28.8867 27.0164 28.8762 26.963 28.8556 26.9132C28.835 26.8635 28.8047 26.8182 28.7667 26.7801C28.7286 26.742 28.6833 26.7118 28.6336 26.6912C28.5838 26.6706 28.5304 26.66 28.4766 26.6601ZM24.3588 26.6601V22.3827C24.3588 22.274 24.3156 22.1696 24.2387 22.0927C24.1618 22.0158 24.0575 21.9726 23.9487 21.9726H21.1362C21.0823 21.9725 21.029 21.9831 20.9792 22.0037C20.9294 22.0243 20.8842 22.0545 20.8461 22.0926C20.808 22.1307 20.7778 22.176 20.7572 22.2257C20.7366 22.2755 20.726 22.3289 20.726 22.3827V26.6601H20.0932V22.3827C20.0932 22.274 20.05 22.1696 19.9731 22.0927C19.8962 22.0158 19.7918 21.9726 19.683 21.9726H16.8705C16.8167 21.9725 16.7633 21.9831 16.7136 22.0037C16.6638 22.0243 16.6185 22.0545 16.5805 22.0926C16.5424 22.1307 16.5122 22.176 16.4915 22.2257C16.4709 22.2755 16.4604 22.3289 16.4604 22.3827V26.6601H7.07812V14.5577L26.6602 12.2043V26.6601H24.3588ZM23.5385 26.6601H21.5463V22.7929H23.5385V26.6601ZM19.2729 26.6601H17.2807V22.7929H19.2729V26.6601ZM15.4057 6.08008H19.2729V6.66602H15.4057V6.08008ZM15.6485 7.48633H19.0294L19.2572 12.2676L15.3984 12.7314L15.6485 7.48633ZM4.73578 6.08008H8.60156V6.66602H4.73438L4.73578 6.08008ZM4.97977 7.48633H8.36039L8.64703 13.5426L5.21227 13.9558C5.1087 13.9685 5.01387 14.0202 4.94707 14.1003C4.88027 14.1805 4.84653 14.283 4.85271 14.3872C4.8589 14.4914 4.90454 14.5892 4.98035 14.6609C5.05616 14.7326 5.15645 14.7727 5.26078 14.773C5.27731 14.773 5.29382 14.7721 5.31023 14.7702L6.25781 14.6561V23.1445H4.23164L4.97977 7.48633ZM3.48937 23.9648H6.25781V26.6601H3.36L3.48937 23.9648ZM28.0664 28.0663H1.93359V27.4804H28.0664V28.0663Z" fill="black"/>
<path d="M14.1675 20.6055H9.47998C9.3712 20.6055 9.26688 20.6487 9.18996 20.7256C9.11304 20.8025 9.06982 20.9068 9.06982 21.0156C9.06982 21.1244 9.11304 21.2287 9.18996 21.3056C9.26688 21.3826 9.3712 21.4258 9.47998 21.4258H14.1675C14.2763 21.4258 14.3806 21.3826 14.4575 21.3056C14.5344 21.2287 14.5776 21.1244 14.5776 21.0156C14.5776 20.9068 14.5344 20.8025 14.4575 20.7256C14.3806 20.6487 14.2763 20.6055 14.1675 20.6055Z" fill="black"/>
<path d="M14.1675 17.793H9.47998C9.3712 17.793 9.26688 17.8362 9.18996 17.9131C9.11304 17.99 9.06982 18.0943 9.06982 18.2031C9.06982 18.3119 9.11304 18.4162 9.18996 18.4931C9.26688 18.5701 9.3712 18.6133 9.47998 18.6133H14.1675C14.2763 18.6133 14.3806 18.5701 14.4575 18.4931C14.5344 18.4162 14.5776 18.3119 14.5776 18.2031C14.5776 18.0943 14.5344 17.99 14.4575 17.9131C14.3806 17.8362 14.2763 17.793 14.1675 17.793Z" fill="black"/>
<path d="M14.1675 19.1992H9.47998C9.3712 19.1992 9.26688 19.2424 9.18996 19.3194C9.11304 19.3963 9.06982 19.5006 9.06982 19.6094C9.06982 19.7182 9.11304 19.8225 9.18996 19.8994C9.26688 19.9763 9.3712 20.0195 9.47998 20.0195H14.1675C14.2763 20.0195 14.3806 19.9763 14.4575 19.8994C14.5344 19.8225 14.5776 19.7182 14.5776 19.6094C14.5776 19.5006 14.5344 19.3963 14.4575 19.3194C14.3806 19.2424 14.2763 19.1992 14.1675 19.1992Z" fill="black"/>
<path d="M18.9792 18.4961H17.573C17.5191 18.4961 17.4658 18.5067 17.416 18.5273C17.3662 18.5479 17.321 18.5781 17.2829 18.6162C17.2448 18.6542 17.2146 18.6995 17.194 18.7493C17.1734 18.799 17.1628 18.8524 17.1628 18.9063V20.3125C17.1628 20.3664 17.1734 20.4197 17.194 20.4695C17.2146 20.5193 17.2448 20.5645 17.2829 20.6026C17.321 20.6407 17.3662 20.6709 17.416 20.6915C17.4658 20.7121 17.5191 20.7227 17.573 20.7227H18.9792C19.088 20.7227 19.1924 20.6794 19.2693 20.6025C19.3462 20.5256 19.3894 20.4213 19.3894 20.3125V18.9063C19.3894 18.7975 19.3462 18.6931 19.2693 18.6162C19.1924 18.5393 19.088 18.4961 18.9792 18.4961ZM18.5691 19.9023H17.9832V19.3164H18.5691V19.9023Z" fill="black"/>
<path d="M23.2455 18.4961H21.8393C21.7854 18.4961 21.7321 18.5067 21.6823 18.5273C21.6325 18.5479 21.5873 18.5781 21.5492 18.6162C21.5111 18.6542 21.4809 18.6995 21.4603 18.7493C21.4397 18.799 21.4291 18.8524 21.4291 18.9063V20.3125C21.4291 20.3664 21.4397 20.4197 21.4603 20.4695C21.4809 20.5193 21.5111 20.5645 21.5492 20.6026C21.5873 20.6407 21.6325 20.6709 21.6823 20.6915C21.7321 20.7121 21.7854 20.7227 21.8393 20.7227H23.2455C23.3543 20.7227 23.4586 20.6794 23.5356 20.6025C23.6125 20.5256 23.6557 20.4213 23.6557 20.3125V18.9063C23.6557 18.7975 23.6125 18.6931 23.5356 18.6162C23.4586 18.5393 23.3543 18.4961 23.2455 18.4961ZM22.8354 19.9023H22.2495V19.3164H22.8354V19.9023Z" fill="black"/>
</svg>
