<svg width="30" height="30" viewBox="0 0 30 30" fill="none" xmlns="http://www.w3.org/2000/svg">
<g clip-path="url(#clip0_69_666)">
<path d="M23.7884 6.05985C23.7884 6.94608 24.5094 7.66705 25.3956 7.66705C26.2818 7.66705 27.003 6.94608 27.003 6.05985C27.003 5.17361 26.2818 4.45264 25.3956 4.45264C24.5094 4.45264 23.7884 5.17361 23.7884 6.05985ZM26.1239 6.05985C26.1239 6.46153 25.7973 6.78815 25.3956 6.78815C24.9939 6.78815 24.6671 6.46153 24.6671 6.05985C24.6671 5.65816 24.9939 5.33154 25.3956 5.33154C25.7973 5.33154 26.1239 5.65816 26.1239 6.05985Z" fill="black"/>
<path d="M3.08692 10.8726L2.88482 10.9216C2.64884 10.9785 2.50373 11.2159 2.56072 11.4516C2.60925 11.6531 2.78915 11.7883 2.98736 11.7883C3.02169 11.7883 3.05625 11.7842 3.09082 11.776L3.29315 11.727C3.52912 11.6702 3.67424 11.4329 3.61724 11.1969C3.56025 10.9609 3.3229 10.816 3.08692 10.8726Z" fill="black"/>
<path d="M28.6416 7.12675C28.8845 7.12675 29.0811 6.93015 29.0811 6.6873V2.78074C29.0811 2.64136 29.0149 2.51043 28.903 2.42735L25.657 0.027752C25.5016 -0.0873757 25.2896 -0.0873757 25.1345 0.027752L21.8885 2.42735C21.7763 2.51043 21.7102 2.64136 21.7102 2.78074V3.79767L7.26244 7.96103C7.02921 8.02809 6.89463 8.27162 6.96192 8.50485C7.02898 8.73808 7.27274 8.87244 7.50574 8.8056L21.7102 4.71228V7.16658C16.3282 8.71748 5.93859 11.7113 3.32292 12.4652C2.69831 12.6451 2.04347 12.2832 1.86334 11.6586C1.77637 11.3558 1.81207 11.0374 1.96451 10.7616C2.11672 10.4861 2.36734 10.2862 2.66992 10.199L6.02648 9.23178C6.25971 9.16449 6.39429 8.92096 6.327 8.68773C6.25994 8.4545 6.01618 8.32014 5.78318 8.38721L2.42662 9.35446C1.89836 9.50667 1.4612 9.85548 1.19524 10.3366C0.929277 10.8177 0.866792 11.3737 1.019 11.9019C1.27855 12.8026 2.10344 13.3903 2.99745 13.3901C2.99997 13.3901 3.00272 13.3899 3.00524 13.3899V29.502C3.00524 29.7446 3.20207 29.9415 3.44469 29.9415C3.6873 29.9415 3.88414 29.7446 3.88414 29.502V13.218L12.2541 10.806L10.0266 29.0626H7.94153C7.69892 29.0626 7.50208 29.2592 7.50208 29.502C7.50208 29.7449 7.69892 29.9415 7.94153 29.9415H24.2807C24.5236 29.9415 24.7202 29.7449 24.7202 29.502C24.7202 29.2592 24.5236 29.0626 24.2807 29.0626H22.1956L19.7061 8.65889L21.7102 8.08119V9.33844C21.7102 9.47783 21.7763 9.60898 21.8885 9.69183L24.9562 11.9601V15.0273H24.2279C23.985 15.0273 23.7884 15.2241 23.7884 15.4668V19.7681C23.7884 20.0107 23.985 20.2076 24.2279 20.2076H26.5634C26.8062 20.2076 27.0028 20.0107 27.0028 19.7681V15.4668C27.0028 15.2241 26.8062 15.0273 26.5634 15.0273H25.8351V11.9601L28.903 9.69183C29.0149 9.60898 29.0811 9.47783 29.0811 9.33844V8.16656C29.0811 7.92395 28.8845 7.72711 28.6416 7.72711C28.3988 7.72711 28.2022 7.92395 28.2022 8.16656V9.11688L25.3956 11.1919L22.5891 9.11688V3.00253L25.3956 0.927487L28.2022 3.00253V6.6873C28.2022 6.93015 28.399 7.12675 28.6416 7.12675ZM13.2054 14.8511L16.111 11.9248L19.0169 14.8511H13.2054ZM18.8299 15.73L16.111 17.9279L13.3924 15.73H18.8299ZM12.4899 16.1307L15.412 18.493L11.8504 21.3724L12.4899 16.1307ZM12.5254 21.9567L16.111 19.0579L19.6969 21.9567H12.5254ZM19.5033 22.8356L16.111 25.126L12.7188 22.8356H19.5033ZM11.6318 23.1622L15.3257 25.6564L10.9685 28.5984L11.6318 23.1622ZM16.111 26.1867L20.3703 29.0626H11.8518L16.111 26.1867ZM16.8963 25.6564L20.5902 23.1625L21.2535 28.5984L16.8963 25.6564ZM16.81 18.493L19.7324 16.1307L20.3719 21.3724L16.81 18.493ZM16.7304 11.3011L18.8789 9.13725L19.4811 14.0713L16.7304 11.3011ZM17.4779 9.3009L16.111 10.6774L15.3523 9.91339L17.4779 9.3009ZM14.3894 10.1908L15.4919 11.3011L12.7412 14.0713L13.1719 10.5417L14.3894 10.1908ZM26.1239 19.3287H24.6673V15.9062H26.1239V19.3287Z" fill="black"/>
</g>
<defs>
<clipPath id="clip0_69_666">
<rect width="30" height="30" fill="white"/>
</clipPath>
</defs>
</svg>
