<svg width="30" height="30" viewBox="0 0 30 30" fill="none" xmlns="http://www.w3.org/2000/svg">
<g clip-path="url(#clip0_69_495)">
<path d="M26.9226 19.4519L25.1613 18.5718V14.516C25.6951 14.516 26.1291 14.082 26.1291 13.5482V11.6128C26.1291 11.079 25.695 10.645 25.1613 10.645H18.3871C17.8533 10.645 17.4193 11.079 17.4193 11.6128V13.5482C17.4193 14.082 17.8533 14.516 18.3871 14.516V18.5718L16.6258 19.4519C14.7281 20.4012 13.5484 22.3096 13.5484 24.4319C13.5484 27.502 16.0461 29.9998 19.1163 29.9998H24.4321C27.5023 29.9998 30 27.5021 30 24.4319C30 22.3097 28.8208 20.4013 26.9226 19.4519ZM18.3871 11.6128H25.1613L25.1617 13.5482H18.3871V11.6128ZM17.0589 20.3176L19.3549 19.1698V14.516H24.1936V19.1698L26.4896 20.3176C27.6867 20.9161 28.5335 21.9777 28.8693 23.2256H21.2415C21.0165 22.1229 20.0396 21.2902 18.8711 21.2902C17.7025 21.2902 16.7256 22.1229 16.5006 23.2256H14.6788C15.015 21.9778 15.8618 20.9161 17.0589 20.3176ZM26.129 25.1611C26.129 25.6948 25.6949 26.1288 25.1613 26.1288C24.6276 26.1288 24.1935 25.6948 24.1935 25.1611C24.1935 24.6274 24.6276 24.1934 25.1613 24.1934C25.6949 24.1934 26.129 24.6274 26.129 25.1611ZM20.2335 23.2256H17.5089C17.7092 22.6638 18.2415 22.2579 18.8715 22.2579C19.5015 22.2579 20.0332 22.6638 20.2335 23.2256ZM24.4321 29.0321H19.1163C16.5798 29.0321 14.5161 26.9684 14.5161 24.432C14.5161 24.3512 14.5287 24.2732 14.5326 24.1934H23.4949C23.3284 24.4794 23.2259 24.807 23.2259 25.1612C23.2259 26.2286 24.0939 27.0966 25.1613 27.0966C26.2287 27.0966 27.0968 26.2286 27.0968 25.1612C27.0968 24.807 26.9942 24.4794 26.8278 24.1934H29.0159C29.0197 24.2733 29.0323 24.3512 29.0323 24.432C29.0323 26.9684 26.9685 29.0321 24.4321 29.0321Z" fill="#141414"/>
<path d="M17.9032 25.1611C17.1029 25.1611 16.4516 25.8124 16.4516 26.6127C16.4516 27.4131 17.1029 28.0643 17.9032 28.0643C18.7035 28.0643 19.3548 27.4131 19.3548 26.6127C19.3549 25.8125 18.7035 25.1611 17.9032 25.1611ZM17.9032 27.0967C17.6361 27.0967 17.4193 26.8799 17.4193 26.6128C17.4193 26.3457 17.6361 26.1289 17.9032 26.1289C18.1703 26.1289 18.3871 26.3457 18.3871 26.6128C18.3871 26.8799 18.1703 27.0967 17.9032 27.0967Z" fill="#141414"/>
<path d="M24.1935 8.22602C24.1935 9.02635 24.8448 9.67762 25.6451 9.67762C26.4455 9.67762 27.0967 9.02635 27.0967 8.22602C27.0967 7.42568 26.4455 6.77441 25.6451 6.77441C24.8449 6.77441 24.1935 7.42568 24.1935 8.22602ZM25.6451 7.74215C25.9122 7.74215 26.129 7.95941 26.129 8.22602C26.129 8.49262 25.9122 8.70988 25.6451 8.70988C25.3781 8.70988 25.1613 8.49262 25.1613 8.22602C25.1613 7.95941 25.3781 7.74215 25.6451 7.74215Z" fill="#141414"/>
<path d="M15.9677 9.67762C16.768 9.67762 17.4193 9.02635 17.4193 8.22602C17.4193 7.42568 16.768 6.77441 15.9677 6.77441C15.1674 6.77441 14.5161 7.42568 14.5161 8.22602C14.5161 9.02635 15.1674 9.67762 15.9677 9.67762ZM15.9677 7.74215C16.2348 7.74215 16.4516 7.95941 16.4516 8.22602C16.4516 8.49262 16.2348 8.70988 15.9677 8.70988C15.7006 8.70988 15.4838 8.49262 15.4838 8.22602C15.4838 7.95941 15.7006 7.74215 15.9677 7.74215Z" fill="#141414"/>
<path d="M21.2903 7.74193C23.4246 7.74193 25.1613 6.00533 25.1613 3.87094C25.1613 1.73654 23.4246 0 21.2903 0C19.156 0 17.4193 1.7366 17.4193 3.871C17.4193 6.00539 19.1559 7.74193 21.2903 7.74193ZM21.2903 0.967734C22.8914 0.967734 24.1935 2.2698 24.1935 3.87094C24.1935 5.47207 22.8914 6.77414 21.2903 6.77414C19.6892 6.77414 18.3871 5.47207 18.3871 3.87094C18.3871 2.2698 19.6892 0.967734 21.2903 0.967734Z" fill="#141414"/>
<path d="M22.2581 3.87102H23.2258C23.2258 2.80361 22.3577 1.93555 21.2903 1.93555V2.90328C21.824 2.90322 22.2581 3.33729 22.2581 3.87102Z" fill="#141414"/>
<path d="M12.5807 26.129H9.32613C10.1327 25.4192 10.6451 24.3822 10.6451 23.2258V18.3871C10.6451 16.2528 8.90854 14.5161 6.77414 14.5161C4.63975 14.5161 2.90314 16.2527 2.90314 18.3871V23.2258C2.90314 24.3823 3.41555 25.4192 4.22215 26.129H0.967734C0.434004 26.129 0 26.5631 0 27.0968V29.0323C0 29.566 0.434004 30 0.967734 30H12.5807C13.1144 30 13.5484 29.566 13.5484 29.0323V27.0968C13.5484 26.5631 13.1143 26.129 12.5807 26.129ZM6.7742 15.4839C8.37533 15.4839 9.6774 16.786 9.6774 18.3871V20.3226H3.871V18.3871C3.871 16.786 5.17307 15.4839 6.7742 15.4839ZM3.871 23.2258V21.2904H9.67746V23.2258C9.67746 24.827 8.37539 26.129 6.77426 26.129C5.17312 26.129 3.871 24.827 3.871 23.2258ZM0.967734 29.0323V27.0968H12.5807L12.5817 29.0323H0.967734Z" fill="#141414"/>
<path d="M11.6129 16.4517H12.5806V17.4194H11.6129V16.4517Z" fill="#141414"/>
<path d="M13.5484 16.4517H14.5161V17.4194H13.5484V16.4517Z" fill="#141414"/>
<path d="M15.4839 16.4517H16.4516V17.4194H15.4839V16.4517Z" fill="#141414"/>
<path d="M5.80648 7.74203C5.80648 8.27576 6.24048 8.70977 6.77421 8.70977H7.74195C8.27568 8.70977 8.70968 8.27576 8.70968 7.74203C9.24341 7.74203 9.67742 7.30803 9.67742 6.7743V5.80656C9.67742 5.27283 9.24341 4.83883 8.70968 4.83883C8.70968 4.3051 8.27568 3.87109 7.74195 3.87109H6.77421C6.24048 3.87109 5.80648 4.3051 5.80648 4.83883C5.27275 4.83883 4.83875 5.27283 4.83875 5.80656V6.7743C4.83875 7.30803 5.27275 7.74203 5.80648 7.74203ZM5.80648 5.80656H6.77421V4.83883H7.74195V5.80656H8.70968V6.7743H7.74195V7.74203H6.77421V6.7743H5.80648V5.80656Z" fill="#141414"/>
<path d="M2.90318 10.6452H5.91285L6.18771 11.7445C6.31064 12.2371 6.75092 12.5806 7.25804 12.5806C7.76517 12.5806 8.20545 12.2371 8.32838 11.7445L8.60324 10.6452H11.6129C12.6803 10.6452 13.5484 9.77709 13.5484 8.70969V3.87102C13.5484 2.80361 12.6803 1.93555 11.6129 1.93555H2.90318C1.83578 1.93555 0.967712 2.80361 0.967712 3.87102V8.70975C0.967712 9.77709 1.83578 10.6452 2.90318 10.6452ZM1.93545 3.87102C1.93545 3.33729 2.36945 2.90328 2.90318 2.90328H11.6128C12.1466 2.90328 12.5806 3.33729 12.5806 3.87102V8.70975C12.5806 9.24348 12.1466 9.67748 11.6128 9.67748H7.84832L7.39011 11.5099C7.35965 11.6313 7.15691 11.6313 7.12638 11.5099L6.66765 9.67748H2.90318C2.36945 9.67748 1.93545 9.24348 1.93545 8.70975V3.87102Z" fill="#141414"/>
</g>
<defs>
<clipPath id="clip0_69_495">
<rect width="30" height="30" fill="white"/>
</clipPath>
</defs>
</svg>
