<svg width="30" height="30" viewBox="0 0 30 30" fill="none" xmlns="http://www.w3.org/2000/svg">
<g clip-path="url(#clip0_69_447)">
<path d="M6.34229 19.8057H4.18909C3.86553 19.8057 3.60315 20.068 3.60315 20.3916V22.5448C3.60315 22.8684 3.86553 23.1307 4.18909 23.1307H6.34229C6.66584 23.1307 6.92823 22.8684 6.92823 22.5448V20.3916C6.92823 20.068 6.6659 19.8057 6.34229 19.8057ZM5.75635 21.9589H4.77502V20.9775H5.75635V21.9589Z" fill="black"/>
<path d="M11.1152 19.8057H8.96204C8.63848 19.8057 8.3761 20.068 8.3761 20.3916V22.5448C8.3761 22.8684 8.63848 23.1307 8.96204 23.1307H11.1152C11.4388 23.1307 11.7012 22.8684 11.7012 22.5448V20.3916C11.7012 20.068 11.4389 19.8057 11.1152 19.8057ZM10.5293 21.9589H9.54797V20.9775H10.5293V21.9589Z" fill="black"/>
<path d="M6.34229 24.3276H4.18909C3.86553 24.3276 3.60315 24.59 3.60315 24.9136V27.0668C3.60315 27.3903 3.86553 27.6527 4.18909 27.6527H6.34229C6.66584 27.6527 6.92823 27.3903 6.92823 27.0668V24.9136C6.92823 24.59 6.6659 24.3276 6.34229 24.3276ZM5.75635 26.4808H4.77502V25.4995H5.75635V26.4808Z" fill="black"/>
<path d="M11.1152 24.3276H8.96204C8.63848 24.3276 8.3761 24.59 8.3761 24.9136V27.0668C8.3761 27.3903 8.63848 27.6527 8.96204 27.6527H11.1152C11.4388 27.6527 11.7012 27.3903 11.7012 27.0668V24.9136C11.7012 24.59 11.4389 24.3276 11.1152 24.3276ZM10.5293 26.4808H9.54797V25.4995H10.5293V26.4808Z" fill="black"/>
<path d="M8.90626 15.1424C8.79669 15.0334 8.64611 14.9707 8.492 14.9707C8.33732 14.9707 8.18673 15.0333 8.07775 15.1424C7.96824 15.2514 7.90607 15.4025 7.90607 15.5566C7.90607 15.7107 7.96824 15.8619 8.07775 15.9708C8.18673 16.0798 8.3379 16.1426 8.492 16.1426C8.64611 16.1426 8.79669 16.0799 8.90626 15.9708C9.01519 15.8619 9.07794 15.7107 9.07794 15.5566C9.07794 15.4025 9.01525 15.2514 8.90626 15.1424Z" fill="black"/>
<path d="M29.4141 28.8281H28.8281V13.9417C28.8281 13.6181 28.5657 13.3558 28.2422 13.3558H25.4371V5.80748C25.4371 5.59063 25.3174 5.39147 25.1258 5.28986L15.282 0.0683406C15.1004 -0.0279876 14.8816 -0.0221868 14.7055 0.0838679C14.5293 0.189864 14.4215 0.380411 14.4215 0.585958V6.56252H8.49182C8.16826 6.56252 7.90588 6.8249 7.90588 7.14846V13.2259C7.90588 13.5495 8.16826 13.8119 8.49182 13.8119C8.81537 13.8119 9.07775 13.5495 9.07775 13.2259V7.7344H17.0465V10.0745H15.0074C14.6839 10.0745 14.4215 10.3369 14.4215 10.6604C14.4215 10.984 14.6839 11.2464 15.0074 11.2464H17.0465V13.3558H15.0074C14.6839 13.3558 14.4215 13.6181 14.4215 13.9417C14.4215 14.2653 14.6839 14.5276 15.0074 14.5276H17.0465V16.637H15.0074C14.6839 16.637 14.4215 16.8994 14.4215 17.2229C14.4215 17.5465 14.6839 17.8089 15.0074 17.8089H17.0465V19.9183H15.0074C14.6839 19.9183 14.4215 20.1806 14.4215 20.5042C14.4215 20.8278 14.6839 21.0901 15.0074 21.0901H17.0465V23.1995H15.0074C14.6839 23.1995 14.4215 23.4619 14.4215 23.7854C14.4215 24.109 14.6839 24.3714 15.0074 24.3714H17.0465V26.4808H15.0074C14.6839 26.4808 14.4215 26.7431 14.4215 27.0667C14.4215 27.3903 14.6839 27.6526 15.0074 27.6526H17.0465V28.8281H14.0625V18.0469C14.0625 17.7233 13.8001 17.461 13.4766 17.461H1.75781C1.43426 17.461 1.17188 17.7233 1.17188 18.0469V28.8281H0.585938C0.262383 28.8281 0 29.0905 0 29.4141C0 29.7376 0.262383 30 0.585938 30H29.4141C29.7376 30 30 29.7376 30 29.4141C30 29.0905 29.7377 28.8281 29.4141 28.8281ZM12.8906 28.8281H2.34375V18.6328H12.8906V28.8281ZM20.1562 13.9417V28.8281H18.2184V7.14846C18.2184 6.8249 17.956 6.56252 17.6324 6.56252H15.5934V1.56002L24.2653 6.15998V13.3558H20.7422C20.4186 13.3558 20.1562 13.6181 20.1562 13.9417ZM27.6562 16.637H24.4922C24.1686 16.637 23.9062 16.8994 23.9062 17.2229C23.9062 17.5465 24.1686 17.8089 24.4922 17.8089H27.6562V19.9183H24.4922C24.1686 19.9183 23.9062 20.1806 23.9062 20.5042C23.9062 20.8278 24.1686 21.0901 24.4922 21.0901H27.6562V23.1995H24.4922C24.1686 23.1995 23.9062 23.4619 23.9062 23.7854C23.9062 24.109 24.1686 24.3714 24.4922 24.3714H27.6562V26.4808H25.8789C25.5554 26.4808 25.293 26.7431 25.293 27.0667C25.293 27.3903 25.5554 27.6526 25.8789 27.6526H27.6562V28.8281H21.3281V14.5276H27.6562V16.637Z" fill="black"/>
<path d="M23.6367 26.6527C23.5277 26.5437 23.3772 26.481 23.2225 26.481C23.0684 26.481 22.9172 26.5437 22.8082 26.6527C22.6992 26.7616 22.6365 26.9128 22.6365 27.0669C22.6365 27.221 22.6992 27.3722 22.8082 27.4812C22.9173 27.5901 23.0684 27.6528 23.2225 27.6528C23.3772 27.6528 23.5277 27.5902 23.6367 27.4812C23.7462 27.3722 23.8084 27.221 23.8084 27.0669C23.8084 26.9122 23.7462 26.7616 23.6367 26.6527Z" fill="black"/>
<path d="M20.1562 6.62109C19.8327 6.62109 19.5703 6.88348 19.5703 7.20703V8.3008C19.5703 8.62441 19.8327 8.88674 20.1562 8.88674C20.4798 8.88674 20.7422 8.62436 20.7422 8.3008V7.20703C20.7422 6.88348 20.4798 6.62109 20.1562 6.62109Z" fill="black"/>
<path d="M20.1562 10.0742C19.8327 10.0742 19.5703 10.3366 19.5703 10.6602V11.8667C19.5703 12.1903 19.8327 12.4527 20.1562 12.4527C20.4798 12.4527 20.7422 12.1903 20.7422 11.8667V10.6602C20.7422 10.3366 20.4798 10.0742 20.1562 10.0742Z" fill="black"/>
<path d="M22.5 6.62109C22.1764 6.62109 21.9141 6.88348 21.9141 7.20703V8.3008C21.9141 8.62441 22.1764 8.88674 22.5 8.88674C22.8236 8.88674 23.0859 8.62436 23.0859 8.3008V7.20703C23.0859 6.88348 22.8236 6.62109 22.5 6.62109Z" fill="black"/>
<path d="M22.5 10.0742C22.1764 10.0742 21.9141 10.3366 21.9141 10.6602V11.8667C21.9141 12.1903 22.1764 12.4527 22.5 12.4527C22.8236 12.4527 23.0859 12.1903 23.0859 11.8667V10.6602C23.0859 10.3366 22.8236 10.0742 22.5 10.0742Z" fill="black"/>
</g>
<defs>
<clipPath id="clip0_69_447">
<rect width="30" height="30" fill="white"/>
</clipPath>
</defs>
</svg>
