<svg width="30" height="30" viewBox="0 0 30 30" fill="none" xmlns="http://www.w3.org/2000/svg">
<path d="M15 0C8.88916 0 3.91785 4.97132 3.91785 11.0821C3.91785 13.0939 4.82006 15.2575 4.85787 15.3488C5.14927 16.0404 5.72423 17.1147 6.13884 17.7445L13.7373 29.2575C14.0482 29.7295 14.5085 30 15 30C15.4915 30 15.9517 29.7295 16.2627 29.2581L23.8618 17.7445C24.277 17.1147 24.8514 16.0404 25.1427 15.3488C25.1806 15.2581 26.0821 13.0945 26.0821 11.0821C26.0821 4.97132 21.1108 0 15 0ZM23.9407 14.8429C23.6806 15.4628 23.1454 16.4622 22.7731 17.0267L15.174 28.5404C15.0241 28.7679 14.9765 28.7679 14.8266 28.5404L7.22749 17.0267C6.85526 16.4622 6.32006 15.4622 6.05996 14.8422C6.04888 14.8155 5.22163 12.824 5.22163 11.0821C5.22163 5.69035 9.6082 1.30378 15 1.30378C20.3918 1.30378 24.7783 5.69035 24.7783 11.0821C24.7783 12.8266 23.9491 14.8233 23.9407 14.8429Z" fill="black"/>
<path d="M15 5.21582C11.7646 5.21582 9.13297 7.84815 9.13297 11.0828C9.13297 14.3175 11.7646 16.9499 15 16.9499C18.2353 16.9499 20.867 14.3175 20.867 11.0828C20.867 7.84815 18.2353 5.21582 15 5.21582ZM15 15.6461C12.4843 15.6461 10.4367 13.5991 10.4367 11.0828C10.4367 8.56654 12.4843 6.5196 15 6.5196C17.5156 6.5196 19.5632 8.56654 19.5632 11.0828C19.5632 13.5991 17.5156 15.6461 15 15.6461Z" fill="black"/>
</svg>
