<svg width="31" height="31" viewBox="0 0 31 31" fill="none" xmlns="http://www.w3.org/2000/svg">
<path d="M4.09149 12.5014H4.01653L1.01834 12.0667C0.949161 12.0568 0.882815 12.0326 0.823585 11.9955C0.764356 11.9585 0.713559 11.9094 0.674474 11.8515C0.63539 11.7935 0.608887 11.7281 0.596677 11.6593C0.584468 11.5905 0.586822 11.5199 0.603589 11.4521C1.26389 8.82633 2.62486 6.42918 4.54121 4.51652C7.15693 1.88156 10.6598 0.314497 14.3676 0.120524C18.0754 -0.0734499 21.7227 1.11956 24.5991 3.46719C24.6539 3.51151 24.6987 3.56693 24.7306 3.62979C24.7625 3.69266 24.7807 3.76156 24.784 3.83196C24.7865 3.90141 24.7744 3.97062 24.7486 4.03515C24.7228 4.09968 24.6838 4.15811 24.6341 4.20672L22.5004 6.34534C22.4148 6.43189 22.3005 6.48422 22.1791 6.4925C22.0576 6.50078 21.9373 6.46444 21.8408 6.39031C20.4173 5.29781 18.7479 4.57036 16.9786 4.27149C15.2092 3.97262 13.3935 4.1114 11.6901 4.67573C9.98671 5.24006 8.44736 6.21277 7.20644 7.50894C5.96553 8.80511 5.06078 10.3853 4.5712 12.1116C4.54655 12.221 4.48584 12.3189 4.39883 12.3896C4.31183 12.4603 4.20358 12.4996 4.09149 12.5014ZM1.72291 11.1523L3.72171 11.4421C4.29806 9.64588 5.29004 8.01098 6.61703 6.67021C7.94403 5.32944 9.56862 4.32061 11.3588 3.72569C13.149 3.13077 15.0543 2.96654 16.9199 3.24634C18.7855 3.52614 20.5587 4.24208 22.0956 5.33599L23.5298 3.90191C20.8388 1.87691 17.5057 0.894402 14.1466 1.13597C10.7874 1.37754 7.62928 2.82686 5.25578 5.21607C3.60049 6.86842 2.38584 8.90935 1.72291 11.1523Z" fill="white"/>
<path d="M15.1499 30.1003C13.1764 30.1055 11.2215 29.7196 9.39805 28.9649C7.5746 28.2101 5.9188 27.1015 4.52634 25.7031C4.16156 25.3384 3.81177 24.9486 3.48696 24.5539C1.19485 21.7231 0.0118413 18.1547 0.158972 14.5153C0.16177 14.4455 0.179182 14.377 0.210083 14.3144C0.240984 14.2517 0.284687 14.1962 0.338371 14.1515C0.392054 14.1067 0.454524 14.0737 0.521745 14.0547C0.588966 14.0356 0.659445 14.0308 0.728629 14.0406L3.72682 14.4703C3.84689 14.4873 3.95668 14.5474 4.03575 14.6393C4.11482 14.7312 4.15775 14.8488 4.15656 14.97C4.14161 16.4363 4.41793 17.8909 4.96948 19.2496C5.52104 20.6083 6.33685 21.844 7.36962 22.8849C7.70939 23.2219 8.06988 23.5373 8.44897 23.8293C10.3141 25.2643 12.5921 26.0598 14.9451 26.0979C15.0678 26.097 15.1866 26.1413 15.2788 26.2224C15.3709 26.3035 15.43 26.4157 15.4448 26.5376L15.7895 29.5357C15.7974 29.6058 15.7903 29.6767 15.7688 29.7439C15.7473 29.8111 15.7118 29.8729 15.6646 29.9254C15.6179 29.9772 15.5609 30.0186 15.4972 30.047C15.4335 30.0754 15.3646 30.0901 15.2948 30.0903L15.1499 30.1003ZM1.15837 15.1099C1.15647 18.321 2.2592 21.435 4.28149 23.9293C4.5813 24.294 4.91111 24.6588 5.2559 25.0036C5.60069 25.3484 5.96047 25.6731 6.33025 26.0029C8.71329 27.9211 11.6574 29.0089 14.7152 29.1009L14.4853 27.1022C12.0713 26.9607 9.75723 26.0895 7.84933 24.6038C7.42938 24.2977 7.0304 23.9639 6.65505 23.6045C6.29702 23.2279 5.96322 22.829 5.65566 22.4102C4.10339 20.4016 3.22858 17.9522 3.15716 15.4147L1.15837 15.1099Z" fill="white"/>
<path d="M18.2529 29.7653C18.1493 29.7661 18.0481 29.7347 17.9631 29.6754C17.9064 29.6346 17.8589 29.5825 17.8236 29.5222C17.7883 29.462 17.7661 29.395 17.7582 29.3256L17.4184 26.3275C17.4051 26.2075 17.4358 26.0867 17.5047 25.9875C17.5736 25.8883 17.6761 25.8174 17.7932 25.7879C19.5661 25.3492 21.2017 24.4757 22.5523 23.2464C23.903 22.0171 24.926 20.4706 25.5291 18.7468C26.1321 17.023 26.2962 15.176 26.0065 13.3729C25.7167 11.5698 24.9823 9.8672 23.8696 8.41906C23.7948 8.32309 23.7576 8.20315 23.765 8.08172C23.7723 7.96029 23.8237 7.84571 23.9095 7.75948L26.0482 5.61586C26.0979 5.56645 26.1573 5.52801 26.2227 5.50305C26.2882 5.47808 26.3581 5.46715 26.428 5.47095C26.4976 5.47499 26.5655 5.49352 26.6275 5.52536C26.6894 5.5572 26.744 5.60164 26.7878 5.65583C28.4024 7.64181 29.4816 10.0081 29.9226 12.5293C30.3636 15.0505 30.1517 17.6426 29.3071 20.0587C28.4624 22.4748 27.0132 24.6344 25.0974 26.3318C23.1817 28.0292 20.8632 29.2078 18.3629 29.7553C18.3269 29.7636 18.2899 29.767 18.2529 29.7653ZM18.4578 26.6373L18.6877 28.6361C20.9054 28.0559 22.9467 26.9398 24.6319 25.3858C26.3171 23.8318 27.5946 21.8876 28.3522 19.7241C29.1097 17.5606 29.3241 15.2441 28.9764 12.9783C28.6286 10.7126 27.7295 8.56694 26.3581 6.73014L24.9239 8.16422C26.0375 9.72703 26.7598 11.5342 27.0301 13.4341C27.3004 15.3339 27.1109 17.2708 26.4773 19.0822C25.8438 20.8935 24.7849 22.5264 23.3894 23.8437C21.9939 25.161 20.3027 26.1242 18.4578 26.6523V26.6373Z" fill="white"/>
<path d="M11.1521 21.106H8.15425C8.02173 21.106 7.89465 21.0534 7.80095 20.9597C7.70724 20.866 7.6546 20.7389 7.6546 20.6063V14.1105C7.6546 13.978 7.70724 13.8509 7.80095 13.7572C7.89465 13.6635 8.02173 13.6108 8.15425 13.6108H11.1521C11.2846 13.6108 11.4117 13.6635 11.5054 13.7572C11.5991 13.8509 11.6518 13.978 11.6518 14.1105V20.6063C11.6518 20.7389 11.5991 20.866 11.5054 20.9597C11.4117 21.0534 11.2846 21.106 11.1521 21.106ZM8.6539 20.1067H10.6525V14.6102H8.6539V20.1067Z" fill="white"/>
<path d="M16.6488 21.1061H13.6509C13.5184 21.1061 13.3913 21.0534 13.2976 20.9597C13.2039 20.866 13.1512 20.7389 13.1512 20.6064V9.61345C13.1512 9.48093 13.2039 9.35383 13.2976 9.26012C13.3913 9.16641 13.5184 9.11377 13.6509 9.11377H16.6488C16.7813 9.11377 16.9084 9.16641 17.0021 9.26012C17.0958 9.35383 17.1484 9.48093 17.1484 9.61345V20.6064C17.1484 20.7389 17.0958 20.866 17.0021 20.9597C16.9084 21.0534 16.7813 21.1061 16.6488 21.1061ZM14.1505 20.1067H16.1491V10.1131H14.1505V20.1067Z" fill="white"/>
<path d="M22.1452 21.1062H19.1473C19.0148 21.1062 18.8877 21.0536 18.794 20.9599C18.7003 20.8661 18.6476 20.739 18.6476 20.6065V12.112C18.6476 11.9795 18.7003 11.8524 18.794 11.7587C18.8877 11.6649 19.0148 11.6123 19.1473 11.6123H22.1452C22.2777 11.6123 22.4048 11.6649 22.4985 11.7587C22.5922 11.8524 22.6448 11.9795 22.6448 12.112V20.6065C22.6448 20.739 22.5922 20.8661 22.4985 20.9599C22.4048 21.0536 22.2777 21.1062 22.1452 21.1062ZM19.6469 20.1068H21.6455V12.6117H19.6469V20.1068Z" fill="white"/>
</svg>
