<svg width="80" height="58" viewBox="0 0 80 58" fill="none" xmlns="http://www.w3.org/2000/svg">
<path d="M71.1111 0H8.88889C6.53141 0 4.27049 0.936505 2.6035 2.60349C0.936505 4.27048 0 6.53141 0 8.88889L0 15.5556H80V8.88889C80 6.53141 79.0635 4.27048 77.3965 2.60349C75.7295 0.936505 73.4686 0 71.1111 0Z" fill="#141414"/>
<path d="M0 48.8888C0 51.2463 0.936505 53.5072 2.6035 55.1742C4.27049 56.8412 6.53141 57.7777 8.88889 57.7777H71.1111C73.4686 57.7777 75.7295 56.8412 77.3965 55.1742C79.0635 53.5072 80 51.2463 80 48.8888V42.2222H0V48.8888Z" fill="#078930"/>
<path d="M0 15.5557H80V42.2223H0V15.5557Z" fill="#DA121A"/>
<path d="M0 15.5557H80V20.0001H0V15.5557ZM0 37.7779H80V42.2223H0V37.7779Z" fill="#EEEEEE"/>
<path d="M3.00222 2.23096H3C1.16 3.85985 0 6.23985 0 9.48207V49.4821C0 51.5398 1.16 53.9198 3.00222 55.5465L38.8889 28.8887L3.00222 2.23096Z" fill="#0F47AF"/>
<path d="M18.3307 28.7045L22.2796 23.2689L15.8907 25.3445L11.9441 19.9111V26.6289L5.55518 28.7045L11.9441 30.78V37.4956L15.8907 32.0622L22.2796 34.1378L18.3307 28.7045Z" fill="#FCDD09"/>
</svg>
