<svg width="80" height="58" viewBox="0 0 80 58" fill="none" xmlns="http://www.w3.org/2000/svg">
<path d="M8.88889 0C6.53141 0 4.27048 0.936505 2.6035 2.60349C0.936505 4.27048 0 6.53141 0 8.88889L0 43.6156L58.7911 0H8.88889Z" fill="#1EB53A"/>
<path d="M71.1111 57.7775C73.4686 57.7775 75.7295 56.841 77.3965 55.174C79.0635 53.507 80 51.2461 80 48.8886V14.0664L21.0645 57.7775H71.1111Z" fill="#00A3DD"/>
<path d="M71.1111 0H65.4844L0 48.0844V48.8889C0 51.2464 0.936505 53.5073 2.6035 55.1743C4.27048 56.8413 6.53141 57.7778 8.88889 57.7778H14.3711L80 9.59555V8.88889C80 6.53141 79.0635 4.27048 77.3965 2.60349C75.7295 0.936505 73.4686 0 71.1111 0Z" fill="#141414"/>
<path d="M58.7911 0L0 43.6156V48.0844L65.4844 0H58.7911ZM21.0644 57.7778L80 14.0667V9.59555L14.3711 57.7778H21.0644Z" fill="#FBD035"/>
</svg>
