<svg width="30" height="30" viewBox="0 0 30 30" fill="none" xmlns="http://www.w3.org/2000/svg">
<g clip-path="url(#clip0_69_483)">
<path d="M14.65 10.6001C10.438 15.3211 7.70655 21.1761 6.79535 27.437L6.56744 28.9945L7.4951 29.1302L7.72301 27.5728C8.60778 21.4932 11.2601 15.8079 15.35 11.2236L14.65 10.6001Z" fill="#141414"/>
<path d="M22.0312 28.125H20.625V29.0625H22.0312V28.125Z" fill="#141414"/>
<path d="M27.6563 13.125H25.7813V7.96877C25.7813 7.5447 25.6376 7.13315 25.3736 6.8013C25.1095 6.46945 24.7408 6.23692 24.3276 6.14167C23.9144 6.04642 23.481 6.09409 23.0984 6.27688C22.7157 6.45967 22.4064 6.7668 22.2208 7.1481C21.8548 6.80753 21.4691 6.48879 21.0657 6.19352C22.4342 5.25763 23.8745 4.43143 25.3732 3.72267L24.6453 5.17836L25.4838 5.59767L27.0576 2.45026L23.9101 0.876465L23.4908 1.71497L25.4076 2.67334C23.5952 3.49816 21.8627 4.4884 20.2323 5.6315C19.6592 5.27743 19.0588 4.96972 18.4367 4.71129C19.2454 3.80063 19.6906 2.62418 19.6875 1.40627V0.93752H19.2188C18.5625 0.935731 17.9124 1.06412 17.3061 1.31526C16.6998 1.56639 16.1493 1.93529 15.6865 2.40059L14.8871 3.20002L11.0605 1.66937C10.8051 1.56698 10.5251 1.54189 10.2555 1.59723C9.98586 1.65257 9.73843 1.7859 9.54392 1.98065L8.13538 3.38924L9.8165 4.32319C7.64385 5.00305 5.69473 6.25619 4.17439 7.95064C2.65405 9.6451 1.61876 11.7182 1.17754 13.9515C0.736325 16.1849 0.905508 18.4959 1.66727 20.6412C2.42904 22.7865 3.7552 24.6867 5.5061 26.1417L6.10554 25.4208C5.40149 24.8353 4.7681 24.1697 4.21818 23.4375H4.29921C4.77498 23.437 5.23112 23.2477 5.56755 22.9113C5.90397 22.5749 6.09321 22.1187 6.09375 21.643C6.09344 21.5304 6.11547 21.4188 6.15855 21.3148C6.20164 21.2108 6.26494 21.1163 6.34478 21.0369L7.44318 19.9385C7.61034 19.7723 7.74286 19.5745 7.83307 19.3567C7.92328 19.1389 7.9694 18.9053 7.96875 18.6696V18.3617C7.9694 18.126 7.92328 17.8924 7.83307 17.6746C7.74286 17.4568 7.61034 17.259 7.44318 17.0927L6.89398 16.5435C6.55716 16.2075 6.1008 16.0188 5.62501 16.0188C5.14922 16.0188 4.69285 16.2075 4.35603 16.5435L4.27558 16.624C4.19618 16.7038 4.10174 16.7671 3.99772 16.8102C3.89369 16.8533 3.78215 16.8753 3.66956 16.875H1.88539C1.87921 16.7192 1.875 16.563 1.875 16.4063C1.87517 15.9362 1.90361 15.4666 1.96015 15H3.69313C3.98251 15 4.26539 14.9142 4.50599 14.7534C4.7466 14.5927 4.93414 14.3641 5.04488 14.0968C5.15562 13.8294 5.18459 13.5353 5.12814 13.2514C5.07169 12.9676 4.93235 12.7069 4.72773 12.5023L3.2084 10.983C3.99349 9.47758 5.09638 8.16082 6.44072 7.12386C7.78506 6.0869 9.33872 5.35452 10.9941 4.97743L12.3541 5.73299L9.375 8.71212V10.0889L7.38711 9.29377L5.25965 11.4212L8.0769 12.5481L9.2038 15.3654L11.3313 13.2379L10.5361 11.25H11.9129L14.892 8.27089L17.2358 12.4896L18.6444 11.0811C18.8391 10.8866 18.9725 10.6392 19.0278 10.3695C19.0832 10.0999 19.0581 9.81996 18.9557 9.56448L17.425 5.73792L17.7255 5.43748C18.3059 5.65668 18.8678 5.92194 19.406 6.23073C19.2164 6.3728 19.0282 6.51672 18.8413 6.66248L19.4199 7.40006C19.695 7.18431 19.9735 6.97331 20.2556 6.76708C20.8959 7.21004 21.4906 7.71532 22.0313 8.27553V13.125H20.1563C19.7834 13.1254 19.426 13.2737 19.1624 13.5374C18.8987 13.801 18.7504 14.1584 18.75 14.5313V25.7813C18.7498 26.1366 18.8847 26.4788 19.1273 26.7384C18.5554 27.0453 17.9588 27.3038 17.3438 27.5112V27.1071C17.3443 26.9223 17.3081 26.7393 17.2374 26.5686C17.1667 26.3979 17.0629 26.243 16.9319 26.1127L16.0748 25.2556C16.0312 25.2122 15.9965 25.1606 15.973 25.1037C15.9494 25.0468 15.9373 24.9858 15.9375 24.9242V24.375C15.9376 24.2507 15.9871 24.1316 16.075 24.0437C16.1628 23.9558 16.282 23.9064 16.4063 23.9063C16.7791 23.9058 17.1365 23.7575 17.4002 23.4939C17.6638 23.2303 17.8121 22.8728 17.8125 22.5V21.0938C17.8121 20.7209 17.6638 20.3635 17.4002 20.0999C17.1365 19.8362 16.7791 19.6879 16.4063 19.6875H15.3883C15.2036 19.687 15.0205 19.7232 14.8499 19.7939C14.6792 19.8646 14.5242 19.9684 14.3939 20.0994L12.1306 22.3627C12.0872 22.4064 12.0356 22.441 11.9787 22.4646C11.9218 22.4881 11.8608 22.5002 11.7992 22.5H11.25C10.8772 22.5004 10.5197 22.6487 10.2561 22.9124C9.99248 23.176 9.84418 23.5334 9.84375 23.9063V24.9242C9.84325 25.109 9.87939 25.292 9.95009 25.4627C10.0208 25.6333 10.1246 25.7883 10.2556 25.9186L10.6439 26.3069C10.6876 26.3503 10.7222 26.402 10.7458 26.4588C10.7694 26.5157 10.7814 26.5767 10.7813 26.6383V27.7855C10.2029 27.643 9.6364 27.4563 9.08667 27.2271L8.72584 28.0923C10.5777 28.8616 12.5856 29.1807 14.5847 29.0235C16.5839 28.8662 18.5172 28.237 20.2259 27.1875H27.6563C28.0291 27.1871 28.3865 27.0388 28.6502 26.7752C28.9138 26.5115 29.0621 26.1541 29.0625 25.7813V14.5313C29.0621 14.1584 28.9138 13.801 28.6502 13.5374C28.3865 13.2737 28.0291 13.1254 27.6563 13.125ZM3.66956 17.8125C3.90532 17.8132 4.13887 17.767 4.35669 17.6768C4.5745 17.5866 4.77227 17.4541 4.93853 17.2869L5.01898 17.2065C5.09856 17.1269 5.19303 17.0638 5.29702 17.0207C5.401 16.9776 5.51245 16.9554 5.625 16.9554C5.73756 16.9554 5.84901 16.9776 5.95299 17.0207C6.05697 17.0638 6.15145 17.1269 6.23103 17.2065L6.78022 17.7557C6.86006 17.8351 6.92336 17.9295 6.96645 18.0336C7.00954 18.1376 7.03157 18.2491 7.03125 18.3617V18.6696C7.03157 18.7822 7.00954 18.8937 6.96645 18.9977C6.92336 19.1017 6.86007 19.1962 6.78023 19.2756L5.68182 20.374C5.51467 20.5403 5.38215 20.738 5.29194 20.9558C5.20172 21.1737 5.15561 21.4072 5.15625 21.643C5.156 21.8702 5.06562 22.088 4.90495 22.2487C4.74428 22.4094 4.52643 22.4998 4.29921 22.5H3.58132C2.71131 21.0717 2.15837 19.4731 1.95993 17.8125H3.66956ZM4.06478 13.1652C4.1383 13.2387 4.18837 13.3324 4.20866 13.4344C4.22894 13.5363 4.21854 13.642 4.17876 13.7381C4.13897 13.8341 4.0716 13.9162 3.98516 13.974C3.89872 14.0317 3.79709 14.0625 3.69313 14.0625H2.11193C2.2645 13.3164 2.4897 12.587 2.78432 11.8848L4.06478 13.1652ZM9.54621 13.6972L8.79811 11.8269L6.92785 11.0788L7.6129 10.3938L9.48315 11.1419L10.2313 13.0121L9.54621 13.6972ZM17.5615 4.27559L16.325 5.51212L18.0852 9.9126C18.1194 9.99777 18.1277 10.0911 18.1093 10.181C18.0908 10.2709 18.0464 10.3533 17.9814 10.4181L17.4517 10.9479L15.108 6.72914L11.5246 10.3125H10.3125V9.10042L13.8959 5.51704L11.1633 3.99897L11.1604 3.98382C11.1545 3.98498 11.1486 3.98631 11.1427 3.98748L9.67713 3.17329L10.2069 2.64361C10.2717 2.57867 10.3542 2.53422 10.4441 2.51576C10.5339 2.49731 10.6273 2.50567 10.7124 2.53981L15.1129 4.30002L16.3494 3.06355C16.9871 2.42221 17.8221 2.01418 18.7198 1.90518C18.6108 2.80297 18.2028 3.63793 17.5615 4.27559ZM16.4063 27.7842C14.8723 28.1611 13.2783 28.2262 11.7188 27.9756V26.6383C11.7193 26.4536 11.6831 26.2706 11.6124 26.0999C11.5417 25.9292 11.4379 25.7742 11.3069 25.6439L10.9186 25.2556C10.8749 25.2122 10.8403 25.1606 10.8167 25.1037C10.7931 25.0468 10.7811 24.9858 10.7813 24.9242V23.9063C10.7814 23.782 10.8308 23.6628 10.9187 23.575C11.0066 23.4871 11.1257 23.4377 11.25 23.4375H11.7992C11.984 23.438 12.167 23.4019 12.3376 23.3312C12.5083 23.2605 12.6633 23.1566 12.7936 23.0256L15.0569 20.7623C15.1003 20.7187 15.1519 20.684 15.2088 20.6605C15.2657 20.6369 15.3267 20.6248 15.3883 20.625H16.4063C16.5305 20.6252 16.6497 20.6746 16.7376 20.7625C16.8254 20.8503 16.8749 20.9695 16.875 21.0938V22.5C16.8749 22.6243 16.8254 22.7434 16.7376 22.8313C16.6497 22.9192 16.5305 22.9686 16.4063 22.9688C16.0334 22.9692 15.676 23.1175 15.4124 23.3811C15.1487 23.6448 15.0004 24.0022 15 24.375V24.9242C14.9995 25.109 15.0356 25.292 15.1063 25.4627C15.177 25.6333 15.2809 25.7883 15.4119 25.9186L16.2689 26.7756C16.3126 26.8191 16.3472 26.8707 16.3708 26.9276C16.3944 26.9845 16.4064 27.0455 16.4063 27.1071V27.7842ZM22.9688 7.96877C22.9688 7.72013 23.0675 7.48167 23.2433 7.30586C23.4192 7.13004 23.6576 7.03127 23.9063 7.03127C24.1549 7.03127 24.3934 7.13004 24.5692 7.30586C24.745 7.48167 24.8438 7.72013 24.8438 7.96877V13.125H22.9688V7.96877ZM28.125 25.7813C28.1249 25.9055 28.0754 26.0247 27.9876 26.1126C27.8997 26.2004 27.7805 26.2499 27.6563 26.25H20.1563C20.032 26.2499 19.9128 26.2004 19.825 26.1126C19.7371 26.0247 19.6876 25.9055 19.6875 25.7813V14.5313C19.6876 14.407 19.7371 14.2878 19.825 14.2C19.9128 14.1121 20.032 14.0627 20.1563 14.0625H27.6563C27.7805 14.0627 27.8997 14.1121 27.9876 14.2C28.0754 14.2878 28.1249 14.407 28.125 14.5313V25.7813Z" fill="#141414"/>
<path d="M27.6562 28.125H26.25V29.0625H27.6562V28.125Z" fill="#141414"/>
<path d="M22.0312 15H21.0938V25.3125H22.0312V15Z" fill="#141414"/>
<path d="M24.375 15H23.4375V25.3125H24.375V15Z" fill="#141414"/>
<path d="M26.7188 15H25.7812V25.3125H26.7188V15Z" fill="#141414"/>
<path d="M14.0625 15.4687V15.7433L12.9308 16.875C12.8435 16.9619 12.7743 17.0652 12.7271 17.179C12.68 17.2927 12.6559 17.4147 12.6563 17.5379V17.8125C12.6565 18.0611 12.7554 18.2993 12.9312 18.4751C13.1069 18.6509 13.3452 18.7497 13.5938 18.75H14.8059C14.929 18.7503 15.051 18.7262 15.1648 18.6791C15.2786 18.632 15.3819 18.5628 15.4688 18.4755L16.1317 17.8125H16.875C17.1236 17.8122 17.3618 17.7134 17.5376 17.5376C17.7134 17.3618 17.8122 17.1236 17.8125 16.875V15.4687C17.8122 15.2202 17.7134 14.9819 17.5376 14.8062C17.3618 14.6304 17.1236 14.5315 16.875 14.5312H15C14.7515 14.5315 14.5132 14.6304 14.3374 14.8062C14.1617 14.9819 14.0628 15.2202 14.0625 15.4687ZM15 15.7434V15.4687H16.875V16.875H16.1317C16.0085 16.8747 15.8865 16.8988 15.7727 16.9459C15.6589 16.993 15.5556 17.0622 15.4688 17.1495L14.8059 17.8125H13.5938V17.538L14.7255 16.4062C14.8128 16.3194 14.882 16.2161 14.9291 16.1023C14.9762 15.9885 15.0003 15.8665 15 15.7434Z" fill="#141414"/>
</g>
<defs>
<clipPath id="clip0_69_483">
<rect width="30" height="30" fill="white"/>
</clipPath>
</defs>
</svg>
