<svg width="30" height="30" viewBox="0 0 30 30" fill="none" xmlns="http://www.w3.org/2000/svg">
<g opacity="0.5" clip-path="url(#clip0_69_594)">
<path d="M27.2728 0H2.72725C1.22104 0 0 1.22104 0 2.72725V27.2727C0 28.779 1.22104 30 2.72725 30H27.2727C28.779 30 30 28.779 30 27.2728V2.72725C30 1.22104 28.779 0 27.2728 0ZM28.6363 27.2728C28.6363 28.0259 28.0258 28.6364 27.2727 28.6364H2.72725C1.97414 28.6364 1.36359 28.0259 1.36359 27.2728V2.72725C1.36359 1.97414 1.97414 1.36359 2.72725 1.36359H27.2727C28.0258 1.36359 28.6363 1.97414 28.6363 2.72725V27.2728V27.2728Z" fill="black"/>
<path d="M22.125 9.7501C21.5747 10.0765 20.9729 10.307 20.3454 10.4319C19.8111 9.8752 19.0717 9.56219 18.3 9.566C16.7779 9.55457 15.5307 10.7713 15.5045 12.2932C15.5052 12.5045 15.5303 12.7151 15.5795 12.9205C13.3379 12.8147 11.2443 11.7704 9.81135 10.0432C9.56625 10.4562 9.43453 10.9267 9.42955 11.4069C9.42961 12.3329 9.89947 13.1955 10.6773 13.6978C10.2331 13.6833 9.79857 13.5642 9.4091 13.35V13.3841C9.40465 14.714 10.3465 15.8592 11.6523 16.1114C11.4121 16.1754 11.1645 16.2075 10.916 16.2068C10.7398 16.2075 10.564 16.1915 10.391 16.1591C10.7674 17.2856 11.8147 18.0512 13.0023 18.0682C12.0127 18.8346 10.7972 19.2518 9.54551 19.2545C9.31763 19.2542 9.08994 19.2406 8.86371 19.2136C10.1468 20.0253 11.6341 20.4556 13.1524 20.4545C17.482 20.5336 21.0561 17.0878 21.1352 12.7581C21.136 12.7122 21.1365 12.6664 21.1365 12.6204C21.1365 12.5045 21.1365 12.3818 21.1365 12.2659C21.6713 11.8748 22.1329 11.3924 22.5001 10.8409C21.9881 11.0647 21.446 11.2117 20.891 11.2772C21.4751 10.9362 21.9141 10.3929 22.125 9.7501Z" fill="black"/>
</g>
<defs>
<clipPath id="clip0_69_594">
<rect width="30" height="30" fill="white"/>
</clipPath>
</defs>
</svg>
