<svg width="80" height="58" viewBox="0 0 80 58" fill="none" xmlns="http://www.w3.org/2000/svg">
<path d="M80 48.8887V46.6665H0V48.8887C0 51.2462 0.936505 53.5071 2.6035 55.1741C4.27049 56.8411 6.53141 57.7776 8.88889 57.7776H71.1111C73.4686 57.7776 75.7295 56.8411 77.3965 55.1741C79.0635 53.5071 80 51.2462 80 48.8887Z" fill="#D90001"/>
<path d="M0 37.7778H80V46.6667H0V37.7778Z" fill="#FCDC02"/>
<path d="M0 28.8887H80V37.7776H0V28.8887Z" fill="#141414"/>
<path d="M0 20H80V28.8889H0V20Z" fill="#D90001"/>
<path d="M0 11.1113H80V20.0002H0V11.1113Z" fill="#FCDC02"/>
<path d="M0 8.88889V11.1111H80V8.88889C80 6.53141 79.0635 4.27048 77.3965 2.60349C75.7295 0.936505 73.4686 0 71.1111 0H8.88889C6.53141 0 4.27049 0.936505 2.6035 2.60349C0.936505 4.27048 0 6.53141 0 8.88889H0Z" fill="#141414"/>
<path d="M40.0002 37.7778C44.9094 37.7778 48.8891 33.7981 48.8891 28.8889C48.8891 23.9797 44.9094 20 40.0002 20C35.091 20 31.1113 23.9797 31.1113 28.8889C31.1113 33.7981 35.091 37.7778 40.0002 37.7778Z" fill="white"/>
<path d="M38.5421 22.291L37.9487 20.7288C37.9487 20.7288 39.2354 20.2777 40.4865 20.7288C41.4398 21.0733 41.5287 22.291 41.5287 22.291L40.0376 22.7421L38.5421 22.291Z" fill="#D90000"/>
<path d="M39.0977 22.0488V20.5288C39.0977 20.5288 39.3443 20.4332 40.0377 20.5288C40.731 20.6244 41.0443 21.111 41.0443 21.111L40.071 22.2932L39.0977 22.0488Z" fill="#FCDC02"/>
<path d="M39.4332 26.4356C39.2487 26.1112 39.4332 24.2134 39.9643 24.0756C40.4954 23.9379 41.5154 22.2712 39.9643 21.7156C38.4132 21.1601 38.0887 22.7801 38.0887 22.7801C38.0887 22.7801 36.5554 23.2312 36.7465 23.6134C36.9309 23.9845 38.2287 23.4756 38.5065 23.7979C38.7843 24.1201 38.3687 24.5845 37.2576 25.8823C36.1465 27.1801 36.8865 28.9379 37.3954 29.3912C37.9043 29.8445 38.5065 30.189 38.9687 30.6045C39.4309 31.0201 39.9643 31.2534 39.9643 31.2534V32.5956C39.9643 32.5956 38.4132 32.7334 37.6732 32.6423C36.9332 32.5512 36.4243 33.0601 36.2376 33.6601C36.0509 34.2601 36.5154 34.5867 36.5154 34.1245C36.5154 33.6623 36.6998 33.9379 36.742 34.309C36.7843 34.6801 37.1154 34.5401 37.1154 34.0779C37.1154 33.6156 37.2998 33.8001 37.3465 34.0312C37.3932 34.2623 37.7176 33.9379 37.7643 33.6601C37.8109 33.3823 38.2265 33.2423 38.5976 33.1512C38.9687 33.0601 39.962 33.2423 39.962 33.2423V35.6956C39.962 35.6956 37.902 35.8334 37.7176 36.1134C37.5332 36.3934 38.9665 36.3445 38.9665 36.3445C38.9665 36.3445 38.5487 37.1312 38.7354 37.1779C38.922 37.2245 40.2176 36.3912 40.7265 36.2979C41.2354 36.2045 42.022 36.529 42.1154 36.2979C42.2087 36.0667 40.8665 35.7423 40.7265 35.5112C40.5865 35.2801 40.3087 33.1512 40.3087 33.1512C40.3087 33.1512 40.9109 33.1023 41.6532 33.149C42.3932 33.1956 42.2087 32.5467 41.7465 31.9001C41.2843 31.2534 41.6998 31.0667 42.4865 31.2067C43.2732 31.3467 43.8754 31.2067 43.8754 29.9556C43.8754 28.7045 39.6176 26.7601 39.4332 26.4356ZM41.0532 32.4534H40.5443L40.7287 31.5267C40.7287 31.529 41.3776 32.4534 41.0532 32.4534Z" fill="#141414"/>
<path d="M38.8311 24.0264C38.8955 23.4731 37.9978 23.5175 37.9511 24.0264C37.9044 24.5353 38.74 24.8153 38.8311 24.0264Z" fill="#D90000"/>
<path d="M39.4446 26.7711C39.7001 26.68 42.569 27.9867 43.3335 28.3334C44.0979 28.68 44.0068 30 43.8779 30.7978C43.749 31.5956 43.2979 31.84 43.2979 31.84C43.2979 31.84 42.7979 30.5511 41.2135 29.9311C39.0868 29.0978 38.4712 27.1178 39.4446 26.7711Z" fill="#9CA69C"/>
<path d="M42.6735 28.2979C43.6091 28.5423 45.5891 28.9912 45.7646 31.0067C45.938 33.0201 43.878 34.2023 43.878 34.2023L44.2224 33.5779L43.6113 33.7867L43.878 33.3334L42.9157 33.5423C42.9157 33.5423 44.5269 32.2579 43.9646 31.1112C44.0069 32.0667 43.3669 32.3267 43.3669 32.3267C43.3669 32.3267 43.918 31.0023 41.5269 29.549L42.1513 29.389L41.5291 28.889L42.8491 29.389L42.2224 28.6112L43.4713 29.0979L42.6735 28.2979Z" fill="#D90000"/>
<path d="M39.0979 22.9689C39.0979 23.029 39.074 23.0866 39.0315 23.1291C38.989 23.1716 38.9313 23.1955 38.8712 23.1955C38.8111 23.1955 38.7534 23.1716 38.7109 23.1291C38.6684 23.0866 38.6445 23.029 38.6445 22.9689C38.6445 22.9087 38.6684 22.8511 38.7109 22.8086C38.7534 22.7661 38.8111 22.7422 38.8712 22.7422C38.9313 22.7422 38.989 22.7661 39.0315 22.8086C39.074 22.8511 39.0979 22.9087 39.0979 22.9689Z" fill="#9CA69C"/>
</svg>
